<svg width="127" height="132" viewBox="0 0 127 132" fill="none" xmlns="http://www.w3.org/2000/svg">
<path d="M123.65 59.8969L68.6299 2.48624C67.8773 1.69819 66.983 1.07291 65.9983 0.646265C65.0135 0.219619 63.9578 0 62.8916 0C61.8254 0 60.7696 0.219619 59.7849 0.646265C58.8002 1.07291 57.9059 1.69819 57.1533 2.48624L45.7262 14.4098L60.2182 29.5315C61.9271 28.9246 63.7651 28.8309 65.5226 29.261C67.2801 29.691 68.8864 30.6276 70.1587 31.9639C71.4309 33.3002 72.3178 34.9825 72.7183 36.8191C73.1188 38.6558 73.0168 40.5729 72.4239 42.352L86.3759 56.9101C88.4614 56.1626 90.7294 56.1833 92.8021 56.9687C94.8747 57.7542 96.6268 59.2571 97.7665 61.2269C98.9061 63.1967 99.3645 65.5145 99.0651 67.7941C98.7658 70.0738 97.7269 72.1775 96.1215 73.7549C94.5161 75.3323 92.4412 76.288 90.2424 76.4629C88.0437 76.6377 85.8539 76.0211 84.038 74.7158C82.222 73.4104 80.8896 71.4952 80.2627 69.2893C79.6357 67.0833 79.7522 64.7198 80.5926 62.5925L67.5633 48.9971V84.7678C69.537 85.7882 71.1161 87.4834 72.0375 89.571C72.959 91.6587 73.1672 94.0127 72.6274 96.241C72.0876 98.4693 70.8325 100.437 69.071 101.817C67.3096 103.197 65.1482 103.906 62.9468 103.825C60.7455 103.745 58.6371 102.879 56.9729 101.374C55.3086 99.8681 54.189 97.8129 53.8005 95.5505C53.412 93.2882 53.7781 90.9552 54.8377 88.9402C55.8973 86.9253 57.5866 85.3499 59.6241 84.4767V48.3772C58.4454 47.8726 57.374 47.1296 56.4716 46.191C55.5692 45.2524 54.8538 44.1368 54.3664 42.9085C53.879 41.6801 53.6294 40.3633 53.6319 39.0338C53.6344 37.7044 53.8889 36.3885 54.3809 35.1622L40.1139 20.2659L2.38499 59.648C1.62907 60.4334 1.02925 61.3669 0.619969 62.3948C0.210688 63.4227 0 64.5249 0 65.638C0 66.7511 0.210688 67.8532 0.619969 68.8812C1.02925 69.9091 1.62907 70.8425 2.38499 71.6279L57.4053 129.02C58.1579 129.808 59.0522 130.433 60.037 130.86C61.0217 131.286 62.0774 131.506 63.1436 131.506C64.2098 131.506 65.2656 131.286 66.2503 130.86C67.235 130.433 68.1293 129.808 68.8819 129.02L123.65 71.8581C124.406 71.0726 125.006 70.1392 125.415 69.1113C125.825 68.0834 126.035 66.9812 126.035 65.8681C126.035 64.755 125.825 63.6528 125.415 62.6249C125.006 61.597 124.406 60.6635 123.65 59.8781" fill="#DD4C35"/>
<path d="M45.7257 5.20374L60.2178 20.3254C61.9267 19.7186 63.7646 19.6248 65.5221 20.0549C67.2796 20.4849 68.886 21.4215 70.1582 22.7578C71.4304 24.0941 72.3173 25.7764 72.7178 27.6131C73.1183 29.4497 73.0164 31.3668 72.4235 33.146L86.3755 47.7041C88.461 46.9565 90.729 46.9772 92.8016 47.7627C94.8743 48.5482 96.6264 50.051 97.766 52.0208C98.9057 53.9906 99.364 56.3085 99.0647 58.5881C98.7654 60.8677 97.7265 62.9715 96.1211 64.5488C94.5157 66.1262 92.4407 67.082 90.242 67.2568C88.0432 67.4316 85.8535 66.815 84.0375 65.5097C82.2216 64.2044 80.8892 62.2892 80.2622 60.0832C79.6353 57.8772 79.7518 55.5137 80.5922 53.3864L67.5628 39.791V75.5618C69.5365 76.5822 71.1156 78.2773 72.0371 80.365C72.9585 82.4526 73.1667 84.8066 72.6269 87.0349C72.0872 89.2633 70.832 91.2313 69.0706 92.6114C67.3091 93.9914 65.1477 94.7001 62.9464 94.6194C60.7451 94.5386 58.6367 93.6734 56.9724 92.1677C55.3082 90.662 54.1886 88.6068 53.8001 86.3445C53.4116 84.0821 53.7776 81.7491 54.8373 79.7342C55.8969 77.7192 57.5862 76.1439 59.6237 75.2706V39.1711C58.4449 38.6665 57.3735 37.9235 56.4712 36.9849C55.5688 36.0463 54.8533 34.9307 54.366 33.7024C53.8786 32.474 53.629 31.1572 53.6314 29.8277C53.6339 28.4983 53.8885 27.1825 54.3804 25.9561L40.1134 11.0599" fill="black"/>
</svg>
