<svg width="56" height="60" viewBox="0 0 56 60" fill="none" xmlns="http://www.w3.org/2000/svg">
<path d="M21 47.5C9.33333 51.25 9.33333 41.25 4.66667 40M37.3333 55V45.325C37.4209 44.1329 37.2705 42.9345 36.8924 41.8095C36.5142 40.6845 35.9168 39.6586 35.14 38.8C42.4667 37.925 50.1667 34.95 50.1667 21.3C50.1661 17.8096 48.9129 14.453 46.6667 11.925C47.7303 8.87129 47.6551 5.4959 46.4567 2.50003C46.4567 2.50003 43.7033 1.62503 37.3333 6.20003C31.9854 4.64708 26.348 4.64708 21 6.20003C14.63 1.62503 11.8767 2.50003 11.8767 2.50003C10.6782 5.4959 10.603 8.87129 11.6667 11.925C9.40363 14.4718 8.14922 17.8587 8.16667 21.375C8.16667 34.925 15.8667 37.9 23.1933 38.875C22.4257 39.725 21.8336 40.7385 21.4557 41.8498C21.0778 42.9611 20.9226 44.1452 21 45.325V55" stroke="black" stroke-width="4" stroke-linecap="round" stroke-linejoin="round"/>
</svg>
