<svg width="27" height="29" viewBox="0 0 27 29" fill="none" xmlns="http://www.w3.org/2000/svg">
<g clip-path="url(#clip0_66_302)">
<path d="M10.125 22.9583C4.5 24.7708 4.5 19.9375 2.25 19.3333M18 26.5833V21.9071C18.0422 21.3309 17.9697 20.7517 17.7874 20.2079C17.6051 19.6642 17.317 19.1683 16.9425 18.7533C20.475 18.3304 24.1875 16.8925 24.1875 10.295C24.1872 8.60796 23.583 6.98562 22.5 5.76376C23.0128 4.28778 22.9766 2.65634 22.3987 1.20834C22.3987 1.20834 21.0713 0.785423 18 2.99667C15.4215 2.24608 12.7035 2.24608 10.125 2.99667C7.05375 0.785423 5.72625 1.20834 5.72625 1.20834C5.14842 2.65634 5.11216 4.28778 5.625 5.76376C4.53389 6.99468 3.92909 8.63169 3.9375 10.3313C3.9375 16.8804 7.65 18.3183 11.1825 18.7896C10.8124 19.2004 10.5269 19.6903 10.3447 20.2274C10.1625 20.7645 10.0877 21.3368 10.125 21.9071V26.5833" stroke="black" stroke-width="4" stroke-linecap="round" stroke-linejoin="round"/>
</g>
<defs>
<clipPath id="clip0_66_302">
<rect width="27" height="29" fill="white"/>
</clipPath>
</defs>
</svg>
