<svg width="113" height="132" viewBox="0 0 113 132" fill="none" xmlns="http://www.w3.org/2000/svg">
<path d="M36.121 101.857C36.121 101.857 30.3087 104.783 40.2549 105.775C50.7507 107.054 61.428 106.662 71.7612 104.618C74.4305 106.001 77.2309 107.184 80.132 108.156C50.3586 119.205 12.7466 107.516 36.1319 101.857" fill="#5382A1"/>
<path d="M32.4866 87.4352C32.4866 87.4352 25.9681 91.6122 35.9251 92.5059C49.4853 93.9025 63.2194 93.3318 76.5628 90.8172C78.3668 92.2738 80.4966 93.3945 82.8206 94.1099C46.822 103.226 6.72209 94.8296 32.4866 87.4258" fill="#5382A1"/>
<path d="M63.1464 62.9748C64.1111 63.983 64.8287 65.1508 65.2555 66.4068C65.6823 67.6629 65.8093 68.9811 65.6289 70.2811C65.4485 71.581 64.9644 72.8356 64.2061 73.9683C63.4478 75.1011 62.4311 76.0883 61.218 76.8699C61.218 76.8699 79.8448 68.5442 71.2892 58.1158C63.2985 48.3929 57.1657 43.5574 90.345 26.9011C90.345 26.9011 38.2728 38.1621 63.1464 62.9748Z" fill="#5382A1"/>
<path d="M102.54 112.521C102.54 112.521 106.842 115.587 97.803 117.963C80.6158 122.469 26.2729 123.833 11.1716 118.142C5.7395 116.095 15.9193 113.259 19.1242 112.666C20.841 112.303 22.6046 112.133 24.3717 112.158C18.3366 108.475 -14.6364 119.388 7.62444 122.507C68.3338 131.03 118.288 118.673 102.54 112.521Z" fill="#5382A1"/>
<path d="M38.9195 72.4955C38.9195 72.4955 11.2755 78.1824 29.1417 80.2474C41.3174 81.0658 53.5526 80.9525 65.7053 79.9087C77.1453 79.0714 88.6343 77.2981 88.6343 77.2981C86.2194 78.207 83.8941 79.2846 81.6811 80.5202C53.608 86.9127 -0.620845 83.9399 14.9911 77.4016C22.4074 74.143 30.6141 72.4628 38.9304 72.5002" fill="#5382A1"/>
<path d="M88.5083 96.4991C117.043 83.6576 103.849 71.3195 94.6412 72.9799C93.5334 73.1575 92.4435 73.4108 91.3819 73.7372C91.9864 72.9939 92.8368 72.4265 93.8209 72.1097C112.04 66.5639 126.05 88.4696 87.9379 97.1435C88.176 96.961 88.3715 96.7406 88.5137 96.4944" fill="#5382A1"/>
<path d="M71.2943 0.00012207C71.2943 0.00012207 87.0963 13.6883 56.3071 34.7426C31.6127 51.6294 50.674 61.2582 56.3071 72.2557C41.8957 60.9947 31.3194 51.0885 38.4137 41.8548C48.8271 28.3125 77.6825 21.7459 71.2943 0.00012207Z" fill="#5382A1"/>
<path d="M41.7224 131.294C69.1111 132.813 111.177 130.452 112.171 119.228C112.171 119.228 110.254 123.462 89.5358 126.863C66.6258 130.272 43.2442 130.589 20.222 127.803C20.222 127.803 23.7258 130.311 41.7278 131.313" fill="#5382A1"/>
</svg>
