<svg width="26" height="26" viewBox="0 0 26 26" fill="none" xmlns="http://www.w3.org/2000/svg">
<path d="M17.3333 8.66669C19.0572 8.66669 20.7105 9.35151 21.9295 10.5705C23.1485 11.7895 23.8333 13.4428 23.8333 15.1667V22.75H19.5V15.1667C19.5 14.5921 19.2717 14.041 18.8654 13.6346C18.4591 13.2283 17.908 13 17.3333 13C16.7587 13 16.2076 13.2283 15.8013 13.6346C15.3949 14.041 15.1667 14.5921 15.1667 15.1667V22.75H10.8333V15.1667C10.8333 13.4428 11.5182 11.7895 12.7371 10.5705C13.9561 9.35151 15.6094 8.66669 17.3333 8.66669Z" stroke="black" stroke-width="4" stroke-linecap="round" stroke-linejoin="round"/>
<path d="M6.5 9.75002H2.16666V22.75H6.5V9.75002Z" stroke="black" stroke-width="4" stroke-linecap="round" stroke-linejoin="round"/>
<path d="M4.33333 6.50002C5.52995 6.50002 6.5 5.52997 6.5 4.33335C6.5 3.13674 5.52995 2.16669 4.33333 2.16669C3.13671 2.16669 2.16666 3.13674 2.16666 4.33335C2.16666 5.52997 3.13671 6.50002 4.33333 6.50002Z" stroke="black" stroke-width="4" stroke-linecap="round" stroke-linejoin="round"/>
</svg>
