<svg width="125" height="113" viewBox="0 0 125 113" fill="none" xmlns="http://www.w3.org/2000/svg">
<path fill-rule="evenodd" clip-rule="evenodd" d="M62.5 0C74.8613 0 86.945 3.28737 97.2231 9.44639C107.501 15.6054 115.512 24.3595 120.242 34.6016C124.973 44.8437 126.211 56.1138 123.799 66.9867C121.387 77.8596 115.435 87.8471 106.694 95.686C97.9534 103.525 86.8169 108.863 74.6931 111.026C62.5693 113.189 50.0027 112.079 38.5823 107.836C27.1619 103.594 17.4007 96.4098 10.5331 87.1922C3.66556 77.9745 0 67.1375 0 56.0516C0 41.1858 6.5848 26.9288 18.3058 16.4171C30.0268 5.90542 45.924 0 62.5 0Z" fill="#CC6699"/>
<path d="M101.705 23.9899C98.8747 14.0367 80.4685 10.7777 63.0489 16.3108C52.1395 19.5984 42.0603 24.7834 33.3882 31.5689C23.7944 39.6163 22.2632 46.6227 22.8926 49.5494C25.1248 59.8789 40.8971 66.6291 47.3837 71.6377V71.6657C45.473 72.5105 31.473 78.8724 28.1873 85.3583C24.7319 92.2127 28.7364 97.1292 31.3926 97.7898C35.3807 98.6508 39.5692 98.3706 43.3707 96.9884C47.1721 95.6062 50.3956 93.1913 52.5891 90.0827C54.4018 87.5641 55.5359 84.7015 55.9017 81.7218C56.2674 78.742 55.8547 75.7269 54.6962 72.9149C57.8206 72.2029 61.0684 72.0357 64.2632 72.4224C75.2274 73.5715 77.3792 79.7092 76.9685 82.2795C76.7753 83.1945 76.3647 84.0614 75.7647 84.8213C75.1646 85.5813 74.389 86.2164 73.4908 86.6836C72.723 87.112 72.4864 87.2561 72.5533 87.5764C72.6471 88.0368 72.9998 88.0208 73.656 87.9207C75.3037 87.4553 76.7555 86.5532 77.8202 85.3332C78.8848 84.1132 79.5124 82.6326 79.6203 81.0864C79.8837 75.0809 73.4507 68.3307 62.0578 68.5028C58.7489 68.4181 55.447 68.8239 52.2855 69.7039C52.1292 69.5438 51.9685 69.3837 51.8033 69.2235C44.7587 62.4853 31.7409 57.7169 32.29 48.6566C32.4909 45.3615 33.7676 36.6896 57.29 26.1679C76.5757 17.548 92.0131 19.9221 94.6828 25.179C98.4953 32.6899 86.4328 46.6427 66.406 48.6566C64.1925 49.0596 61.9062 49.0104 59.7168 48.5128C57.5274 48.0151 55.491 47.0818 53.7587 45.7819C52.7051 44.741 52.5489 44.6969 52.156 44.8891C51.5176 45.2054 51.9239 46.1262 52.156 46.6707C52.9229 47.9102 53.958 48.9998 55.2006 49.8757C56.4433 50.7516 57.8685 51.3961 59.3926 51.7714C67.2666 53.3058 75.4795 52.5774 82.8658 49.6895C95.0131 45.4897 104.486 33.7789 101.705 23.9899ZM50.0801 74.7206C50.9668 77.4619 50.9217 80.378 49.9507 83.0963C49.8465 83.3792 49.7319 83.6594 49.6069 83.937C49.4819 84.2146 49.3465 84.4815 49.2007 84.7378C48.4493 86.1164 47.4761 87.3885 46.3123 88.5132C42.6828 92.0645 37.6069 93.4098 35.4328 92.2767C33.0846 91.0556 34.2587 86.047 38.4685 82.0553C41.7033 79.1866 45.4327 76.8045 49.5132 75.0008L50.0801 74.7206Z" fill="white"/>
</svg>
