<svg width="107" height="124" viewBox="0 0 107 124" fill="none" xmlns="http://www.w3.org/2000/svg">
<path d="M9.73436 111.604L0 0H107L97.2526 111.587L53.435 124L9.73436 111.604Z" fill="#1572B6"/>
<path d="M53.4999 114.515L88.9094 104.484L97.2396 9.12793H53.4999V114.515Z" fill="#33A9DC"/>
<path d="M53.4999 49.5606H71.2264L72.4486 35.5442H53.4999V21.8555H53.5476H87.0891L86.7684 25.5268L83.4788 63.2493H53.4999V49.5606Z" fill="white"/>
<path d="M53.5823 85.1085L53.5216 85.1262L38.6037 81.0076L37.6502 70.0912H30.3993H24.2015L26.0782 91.5831L53.5173 99.3685L53.5823 99.3508V85.1085Z" fill="#EBEBEB"/>
<path d="M70.0868 62.6688L68.4745 80.9987L53.5349 85.1173V99.3596L80.9957 91.583L81.1994 89.2713L83.5268 62.6688H70.0868Z" fill="white"/>
<path d="M53.5474 21.8555V30.3583V35.5088V35.5442H21.2324H21.1891L20.9204 32.4663L20.3092 25.5268L19.9885 21.8555H53.5474Z" fill="#EBEBEB"/>
<path d="M53.4997 49.5602V58.063V63.2135V63.2489H38.8115H38.7681L38.4994 60.171L37.8926 53.2315L37.5719 49.5602H53.4997Z" fill="#EBEBEB"/>
</svg>
