<svg width="93" height="130" viewBox="0 0 93 130" fill="none" xmlns="http://www.w3.org/2000/svg">
<mask id="mask0_13_43" style="mask-type:luminance" maskUnits="userSpaceOnUse" x="0" y="0" width="93" height="130">
<path d="M92.4772 0.95166H0V129.291H92.4772V0.95166Z" fill="white"/>
</mask>
<g mask="url(#mask0_13_43)">
<path d="M46.2386 65.1212C46.2386 59.4482 48.6745 54.0076 53.0101 49.9962C57.3458 45.9849 63.2263 43.7313 69.3579 43.7313C75.4896 43.7313 81.3701 45.9849 85.7058 49.9962C90.0414 54.0076 92.4772 59.4482 92.4772 65.1212C92.4772 70.7941 90.0414 76.2347 85.7058 80.2461C81.3701 84.2574 75.4896 86.511 69.3579 86.511C63.2263 86.511 57.3458 84.2574 53.0101 80.2461C48.6745 76.2347 46.2386 70.7941 46.2386 65.1212Z" fill="#1ABCFE"/>
<path d="M0 107.901C0 102.228 2.43577 96.787 6.77149 92.7755C11.1072 88.7646 16.9877 86.511 23.1193 86.511H46.2386V107.901C46.2386 113.574 43.8028 119.015 39.4671 123.026C35.1314 127.037 29.2509 129.291 23.1193 129.291C16.9877 129.291 11.1072 127.037 6.77149 123.026C2.43577 119.015 0 113.574 0 107.901Z" fill="#0ACF83"/>
<path d="M46.2386 0.95166V43.7313H69.3579C75.4896 43.7313 81.3701 41.4777 85.7058 37.4664C90.0414 33.455 92.4772 28.0144 92.4772 22.3415C92.4772 16.6686 90.0414 11.228 85.7058 7.2166C81.3701 3.20522 75.4896 0.95166 69.3579 0.95166H46.2386Z" fill="#FF7262"/>
<path d="M0 22.3415C0 28.0144 2.43577 33.455 6.77149 37.4664C11.1072 41.4777 16.9877 43.7313 23.1193 43.7313H46.2386V0.95166H23.1193C16.9877 0.95166 11.1072 3.20522 6.77149 7.2166C2.43577 11.228 0 16.6686 0 22.3415Z" fill="#F24E1E"/>
<path d="M0 65.1212C0 70.7941 2.43577 76.2347 6.77149 80.2461C11.1072 84.2574 16.9877 86.511 23.1193 86.511H46.2386V43.7313H23.1193C16.9877 43.7313 11.1072 45.9849 6.77149 49.9962C2.43577 54.0076 0 59.4482 0 65.1212Z" fill="#A259FF"/>
</g>
</svg>
