<svg width="55" height="56" viewBox="0 0 55 56" fill="none" xmlns="http://www.w3.org/2000/svg">
<path d="M40.1042 15.1667H40.1271M16.0417 4.66669H38.9583C45.2866 4.66669 50.4167 9.89003 50.4167 16.3334V39.6667C50.4167 46.11 45.2866 51.3334 38.9583 51.3334H16.0417C9.71341 51.3334 4.58334 46.11 4.58334 39.6667V16.3334C4.58334 9.89003 9.71341 4.66669 16.0417 4.66669ZM36.6667 26.53C36.9495 28.4719 36.6237 30.4552 35.7357 32.1977C34.8477 33.9403 33.4426 35.3533 31.7204 36.2359C29.9982 37.1185 28.0464 37.4257 26.1428 37.1139C24.2392 36.802 22.4807 35.8869 21.1173 34.4987C19.754 33.1106 18.8552 31.3201 18.5489 29.3819C18.2426 27.4436 18.5443 25.4564 19.4112 23.7029C20.278 21.9493 21.6658 20.5187 23.3773 19.6146C25.0887 18.7104 27.0365 18.3787 28.9438 18.6667C30.8892 18.9604 32.6903 19.8834 34.081 21.2994C35.4717 22.7154 36.3782 24.5492 36.6667 26.53Z" stroke="black" stroke-width="4" stroke-linecap="round" stroke-linejoin="round"/>
</svg>
