<svg width="121" height="118" viewBox="0 0 121 118" fill="none" xmlns="http://www.w3.org/2000/svg">
<path d="M0 0H121V118H0V0Z" fill="#F5DE19"/>
<path d="M81.2816 92.1879C82.3125 94.2301 83.9143 95.9467 85.9022 97.1397C87.8901 98.3327 90.1832 98.9535 92.5173 98.9307C97.2276 98.9307 100.24 96.6339 100.24 93.4522C100.24 89.6593 97.1455 88.3023 91.9598 86.0898L89.1163 84.9014C80.9056 81.492 75.4606 77.2229 75.4606 68.1959C75.4606 59.8812 81.9428 53.5471 92.1111 53.5471C95.4027 53.3153 98.6915 54.0337 101.567 55.6128C104.443 57.1919 106.778 59.5617 108.282 62.4266L99.3927 67.9684C98.8137 66.5478 97.8056 65.3325 96.502 64.4835C95.1985 63.6345 93.6611 63.192 92.0938 63.2147C91.41 63.1479 90.7194 63.2208 90.0661 63.4287C89.4127 63.6366 88.8109 63.9749 88.2991 64.4221C87.7873 64.8694 87.3765 65.4156 87.0932 66.0262C86.8098 66.6368 86.6599 67.2982 86.6531 67.9684C86.6531 71.2935 88.7663 72.642 93.6452 74.7112L96.4887 75.8997C106.151 79.9412 111.614 84.0585 111.614 93.3173C111.614 103.301 103.572 108.771 92.7723 108.771C88.5645 109.033 84.369 108.101 80.6922 106.089C77.0154 104.076 74.0142 101.069 72.051 97.4305L81.2816 92.1879ZM41.1139 93.1487C42.8986 96.2378 44.5235 98.8507 48.4301 98.8507C52.1638 98.8507 54.5233 97.4262 54.5233 91.8844V54.1792H65.893V92.0319C65.893 103.512 58.9787 108.737 48.9141 108.737C45.3565 108.927 41.8233 108.062 38.779 106.257C35.7347 104.452 33.3217 101.791 31.8574 98.6231L41.1139 93.1487Z" fill="black"/>
</svg>
