<svg width="249" height="73" viewBox="0 0 249 73" fill="none" xmlns="http://www.w3.org/2000/svg">
<ellipse cx="35.6143" cy="32.7421" rx="35.6143" ry="32.7421" fill="#BCB6B6"/>
<ellipse cx="75.3846" cy="40.12" rx="25.8426" ry="27.7274" transform="rotate(-10.7975 75.3846 40.12)" fill="black"/>
<g filter="url(#filter0_b_75_209)">
<mask id="path-3-outside-1_75_209" maskUnits="userSpaceOnUse" x="40.6373" y="18.4465" width="179" height="31" fill="black">
<rect fill="white" x="40.6373" y="18.4465" width="179" height="31"/>
<path d="M42.8994 44.4465C42.5994 44.4465 42.4494 44.2965 42.4494 43.9965V20.9025C42.4494 20.6025 42.5994 20.4525 42.8994 20.4525H53.4474C53.7354 20.4525 53.9754 20.5485 54.1674 20.7405L57.7674 24.3405C57.9714 24.5445 58.0734 24.7845 58.0734 25.0605V32.6205C58.0734 32.9085 57.9714 33.1485 57.7674 33.3405L54.1674 36.9405C53.9754 37.1445 53.7354 37.2465 53.4474 37.2465H49.2174V43.9965C49.2174 44.2965 49.0674 44.4465 48.7674 44.4465H42.8994ZM50.0994 31.0725C50.8314 31.0725 51.3654 30.8985 51.7014 30.5505C52.0374 30.1905 52.2054 29.6205 52.2054 28.8405C52.2054 28.0605 52.0374 27.4965 51.7014 27.1485C51.3654 26.7885 50.8314 26.6085 50.0994 26.6085C49.3674 26.6085 48.8334 26.7885 48.4974 27.1485C48.1734 27.4965 48.0114 28.0605 48.0114 28.8405C48.0114 29.6205 48.1734 30.1905 48.4974 30.5505C48.8334 30.8985 49.3674 31.0725 50.0994 31.0725ZM60.7236 44.4465C60.4236 44.4465 60.2736 44.2965 60.2736 43.9965V20.9025C60.2736 20.6025 60.4236 20.4525 60.7236 20.4525H71.1096C71.4096 20.4525 71.6496 20.5305 71.8296 20.6865L75.9696 24.7905C76.1016 24.9105 76.1856 25.0125 76.2216 25.0965C76.2576 25.1805 76.2756 25.3185 76.2756 25.5105V30.4425C76.2756 30.5985 76.1916 30.7605 76.0236 30.9285L73.7916 33.1425L72.7656 34.0245L74.3136 36.1485L76.4556 40.4865C76.5036 40.5945 76.5396 40.7025 76.5636 40.8105C76.5876 40.9065 76.5996 41.0325 76.5996 41.1885V43.9965C76.5996 44.2965 76.4496 44.4465 76.1496 44.4465H70.9116C70.6476 44.4465 70.4676 44.3265 70.3716 44.0865L67.7076 36.7425H66.8976V43.9965C66.8976 44.2965 66.7476 44.4465 66.4476 44.4465H60.7236ZM68.2656 30.7305C69.0096 30.7305 69.5436 30.5505 69.8676 30.1905C70.2036 29.8185 70.3716 29.2365 70.3716 28.4445C70.3716 27.6405 70.2036 27.0585 69.8676 26.6985C69.5436 26.3385 69.0096 26.1585 68.2656 26.1585C67.5456 26.1585 67.0176 26.3385 66.6816 26.6985C66.3456 27.0585 66.1776 27.6405 66.1776 28.4445C66.1776 29.2365 66.3456 29.8185 66.6816 30.1905C67.0176 30.5505 67.5456 30.7305 68.2656 30.7305ZM83.3738 44.4465C83.0978 44.4465 82.8578 44.3445 82.6538 44.1405L79.0538 40.5405C78.8618 40.3485 78.7658 40.1085 78.7658 39.8205V25.0605C78.7658 24.7845 78.8618 24.5445 79.0538 24.3405L82.6538 20.7405C82.8578 20.5485 83.0978 20.4525 83.3738 20.4525H90.6098C90.8978 20.4525 91.1378 20.5485 91.3298 20.7405L94.9298 24.3405C95.1338 24.5445 95.2358 24.7845 95.2358 25.0605V39.8205C95.2358 40.1085 95.1338 40.3485 94.9298 40.5405L91.3298 44.1405C91.1378 44.3445 90.8978 44.4465 90.6098 44.4465H83.3738ZM86.2898 38.3985H87.7118C88.2038 38.3985 88.4498 38.0625 88.4498 37.3905V27.5085C88.4498 26.8245 88.2038 26.4825 87.7118 26.4825H86.2898C85.7858 26.4825 85.5338 26.8245 85.5338 27.5085V37.3905C85.5338 38.0625 85.7858 38.3985 86.2898 38.3985ZM97.5438 47.4525C97.2438 47.4525 97.0938 47.3025 97.0938 47.0025V43.2045C97.0938 42.9765 97.1538 42.7965 97.2738 42.6645L99.9378 40.0005C100.082 39.8685 100.154 39.6765 100.154 39.4245V20.9025C100.154 20.6025 100.304 20.4525 100.604 20.4525H106.49C106.79 20.4525 106.94 20.6025 106.94 20.9025V42.8805C106.94 42.9885 106.928 43.0905 106.904 43.1865C106.88 43.2705 106.82 43.3605 106.724 43.4565L102.998 47.1825C102.818 47.3625 102.638 47.4525 102.458 47.4525H97.5438ZM110.259 44.4465C109.959 44.4465 109.809 44.2965 109.809 43.9965V20.9025C109.809 20.6025 109.959 20.4525 110.259 20.4525H122.787C123.087 20.4525 123.237 20.6025 123.237 20.9025V26.0325C123.237 26.3325 123.087 26.4825 122.787 26.4825H116.577V29.7225H122.499C122.799 29.7225 122.949 29.8725 122.949 30.1725V34.7265C122.949 35.0265 122.799 35.1765 122.499 35.1765H116.577V38.3985H122.787C123.087 38.3985 123.237 38.5485 123.237 38.8485V43.9965C123.237 44.2965 123.087 44.4465 122.787 44.4465H110.259ZM129.613 44.4465C129.313 44.4465 129.163 44.2965 129.163 43.9965V26.4825H126.571C126.271 26.4825 126.121 26.3325 126.121 26.0325V20.9025C126.121 20.6025 126.271 20.4525 126.571 20.4525H138.559C138.859 20.4525 139.009 20.6025 139.009 20.9025V26.0325C139.009 26.3325 138.859 26.4825 138.559 26.4825H135.949V43.9965C135.949 44.2965 135.799 44.4465 135.499 44.4465H129.613ZM146.479 44.4465C146.203 44.4465 145.963 44.3445 145.759 44.1405L142.159 40.5405C141.967 40.3485 141.871 40.1085 141.871 39.8205V25.0605C141.871 24.7845 141.967 24.5445 142.159 24.3405L145.759 20.7405C145.963 20.5485 146.203 20.4525 146.479 20.4525H153.715C154.003 20.4525 154.243 20.5485 154.435 20.7405L158.035 24.3405C158.239 24.5445 158.341 24.7845 158.341 25.0605V39.8205C158.341 40.1085 158.239 40.3485 158.035 40.5405L154.435 44.1405C154.243 44.3445 154.003 44.4465 153.715 44.4465H146.479ZM149.395 38.3985H150.817C151.309 38.3985 151.555 38.0625 151.555 37.3905V27.5085C151.555 26.8245 151.309 26.4825 150.817 26.4825H149.395C148.891 26.4825 148.639 26.8245 148.639 27.5085V37.3905C148.639 38.0625 148.891 38.3985 149.395 38.3985ZM176.28 44.4465L181.68 23.0625H186.342L180.942 44.4465H176.28ZM166.002 39.7305L166.974 35.5905L187.962 35.5365L187.314 39.7305H166.002ZM168.81 44.4465L174.156 23.1525H178.818L173.472 44.4465H168.81ZM167.496 31.9725L168.432 27.8865L189.474 27.8325L188.79 31.9725H167.496ZM193.279 44.4465C192.979 44.4465 192.829 44.2965 192.829 43.9965V26.4465L190.885 26.4825C190.585 26.4825 190.435 26.3325 190.435 26.0325V20.9025C190.435 20.6025 190.585 20.4525 190.885 20.4525H199.147C199.447 20.4525 199.597 20.6025 199.597 20.9025V43.9965C199.597 44.2965 199.447 44.4465 199.147 44.4465H193.279ZM203.561 44.4465C203.165 44.4465 202.883 44.3565 202.715 44.1765C202.559 43.9965 202.481 43.7445 202.481 43.4205V21.4965C202.481 21.1725 202.559 20.9205 202.715 20.7405C202.883 20.5605 203.165 20.4705 203.561 20.4705L217.277 20.4165C217.685 20.4165 217.967 20.5065 218.123 20.6865C218.291 20.8665 218.375 21.1185 218.375 21.4425V43.4205C218.375 43.7445 218.291 43.9965 218.123 44.1765C217.967 44.3565 217.685 44.4465 217.277 44.4465H203.561ZM209.087 38.8485H211.751V26.0145H209.087V38.8485Z"/>
</mask>
<path d="M42.8994 44.4465C42.5994 44.4465 42.4494 44.2965 42.4494 43.9965V20.9025C42.4494 20.6025 42.5994 20.4525 42.8994 20.4525H53.4474C53.7354 20.4525 53.9754 20.5485 54.1674 20.7405L57.7674 24.3405C57.9714 24.5445 58.0734 24.7845 58.0734 25.0605V32.6205C58.0734 32.9085 57.9714 33.1485 57.7674 33.3405L54.1674 36.9405C53.9754 37.1445 53.7354 37.2465 53.4474 37.2465H49.2174V43.9965C49.2174 44.2965 49.0674 44.4465 48.7674 44.4465H42.8994ZM50.0994 31.0725C50.8314 31.0725 51.3654 30.8985 51.7014 30.5505C52.0374 30.1905 52.2054 29.6205 52.2054 28.8405C52.2054 28.0605 52.0374 27.4965 51.7014 27.1485C51.3654 26.7885 50.8314 26.6085 50.0994 26.6085C49.3674 26.6085 48.8334 26.7885 48.4974 27.1485C48.1734 27.4965 48.0114 28.0605 48.0114 28.8405C48.0114 29.6205 48.1734 30.1905 48.4974 30.5505C48.8334 30.8985 49.3674 31.0725 50.0994 31.0725ZM60.7236 44.4465C60.4236 44.4465 60.2736 44.2965 60.2736 43.9965V20.9025C60.2736 20.6025 60.4236 20.4525 60.7236 20.4525H71.1096C71.4096 20.4525 71.6496 20.5305 71.8296 20.6865L75.9696 24.7905C76.1016 24.9105 76.1856 25.0125 76.2216 25.0965C76.2576 25.1805 76.2756 25.3185 76.2756 25.5105V30.4425C76.2756 30.5985 76.1916 30.7605 76.0236 30.9285L73.7916 33.1425L72.7656 34.0245L74.3136 36.1485L76.4556 40.4865C76.5036 40.5945 76.5396 40.7025 76.5636 40.8105C76.5876 40.9065 76.5996 41.0325 76.5996 41.1885V43.9965C76.5996 44.2965 76.4496 44.4465 76.1496 44.4465H70.9116C70.6476 44.4465 70.4676 44.3265 70.3716 44.0865L67.7076 36.7425H66.8976V43.9965C66.8976 44.2965 66.7476 44.4465 66.4476 44.4465H60.7236ZM68.2656 30.7305C69.0096 30.7305 69.5436 30.5505 69.8676 30.1905C70.2036 29.8185 70.3716 29.2365 70.3716 28.4445C70.3716 27.6405 70.2036 27.0585 69.8676 26.6985C69.5436 26.3385 69.0096 26.1585 68.2656 26.1585C67.5456 26.1585 67.0176 26.3385 66.6816 26.6985C66.3456 27.0585 66.1776 27.6405 66.1776 28.4445C66.1776 29.2365 66.3456 29.8185 66.6816 30.1905C67.0176 30.5505 67.5456 30.7305 68.2656 30.7305ZM83.3738 44.4465C83.0978 44.4465 82.8578 44.3445 82.6538 44.1405L79.0538 40.5405C78.8618 40.3485 78.7658 40.1085 78.7658 39.8205V25.0605C78.7658 24.7845 78.8618 24.5445 79.0538 24.3405L82.6538 20.7405C82.8578 20.5485 83.0978 20.4525 83.3738 20.4525H90.6098C90.8978 20.4525 91.1378 20.5485 91.3298 20.7405L94.9298 24.3405C95.1338 24.5445 95.2358 24.7845 95.2358 25.0605V39.8205C95.2358 40.1085 95.1338 40.3485 94.9298 40.5405L91.3298 44.1405C91.1378 44.3445 90.8978 44.4465 90.6098 44.4465H83.3738ZM86.2898 38.3985H87.7118C88.2038 38.3985 88.4498 38.0625 88.4498 37.3905V27.5085C88.4498 26.8245 88.2038 26.4825 87.7118 26.4825H86.2898C85.7858 26.4825 85.5338 26.8245 85.5338 27.5085V37.3905C85.5338 38.0625 85.7858 38.3985 86.2898 38.3985ZM97.5438 47.4525C97.2438 47.4525 97.0938 47.3025 97.0938 47.0025V43.2045C97.0938 42.9765 97.1538 42.7965 97.2738 42.6645L99.9378 40.0005C100.082 39.8685 100.154 39.6765 100.154 39.4245V20.9025C100.154 20.6025 100.304 20.4525 100.604 20.4525H106.49C106.79 20.4525 106.94 20.6025 106.94 20.9025V42.8805C106.94 42.9885 106.928 43.0905 106.904 43.1865C106.88 43.2705 106.82 43.3605 106.724 43.4565L102.998 47.1825C102.818 47.3625 102.638 47.4525 102.458 47.4525H97.5438ZM110.259 44.4465C109.959 44.4465 109.809 44.2965 109.809 43.9965V20.9025C109.809 20.6025 109.959 20.4525 110.259 20.4525H122.787C123.087 20.4525 123.237 20.6025 123.237 20.9025V26.0325C123.237 26.3325 123.087 26.4825 122.787 26.4825H116.577V29.7225H122.499C122.799 29.7225 122.949 29.8725 122.949 30.1725V34.7265C122.949 35.0265 122.799 35.1765 122.499 35.1765H116.577V38.3985H122.787C123.087 38.3985 123.237 38.5485 123.237 38.8485V43.9965C123.237 44.2965 123.087 44.4465 122.787 44.4465H110.259ZM129.613 44.4465C129.313 44.4465 129.163 44.2965 129.163 43.9965V26.4825H126.571C126.271 26.4825 126.121 26.3325 126.121 26.0325V20.9025C126.121 20.6025 126.271 20.4525 126.571 20.4525H138.559C138.859 20.4525 139.009 20.6025 139.009 20.9025V26.0325C139.009 26.3325 138.859 26.4825 138.559 26.4825H135.949V43.9965C135.949 44.2965 135.799 44.4465 135.499 44.4465H129.613ZM146.479 44.4465C146.203 44.4465 145.963 44.3445 145.759 44.1405L142.159 40.5405C141.967 40.3485 141.871 40.1085 141.871 39.8205V25.0605C141.871 24.7845 141.967 24.5445 142.159 24.3405L145.759 20.7405C145.963 20.5485 146.203 20.4525 146.479 20.4525H153.715C154.003 20.4525 154.243 20.5485 154.435 20.7405L158.035 24.3405C158.239 24.5445 158.341 24.7845 158.341 25.0605V39.8205C158.341 40.1085 158.239 40.3485 158.035 40.5405L154.435 44.1405C154.243 44.3445 154.003 44.4465 153.715 44.4465H146.479ZM149.395 38.3985H150.817C151.309 38.3985 151.555 38.0625 151.555 37.3905V27.5085C151.555 26.8245 151.309 26.4825 150.817 26.4825H149.395C148.891 26.4825 148.639 26.8245 148.639 27.5085V37.3905C148.639 38.0625 148.891 38.3985 149.395 38.3985ZM176.28 44.4465L181.68 23.0625H186.342L180.942 44.4465H176.28ZM166.002 39.7305L166.974 35.5905L187.962 35.5365L187.314 39.7305H166.002ZM168.81 44.4465L174.156 23.1525H178.818L173.472 44.4465H168.81ZM167.496 31.9725L168.432 27.8865L189.474 27.8325L188.79 31.9725H167.496ZM193.279 44.4465C192.979 44.4465 192.829 44.2965 192.829 43.9965V26.4465L190.885 26.4825C190.585 26.4825 190.435 26.3325 190.435 26.0325V20.9025C190.435 20.6025 190.585 20.4525 190.885 20.4525H199.147C199.447 20.4525 199.597 20.6025 199.597 20.9025V43.9965C199.597 44.2965 199.447 44.4465 199.147 44.4465H193.279ZM203.561 44.4465C203.165 44.4465 202.883 44.3565 202.715 44.1765C202.559 43.9965 202.481 43.7445 202.481 43.4205V21.4965C202.481 21.1725 202.559 20.9205 202.715 20.7405C202.883 20.5605 203.165 20.4705 203.561 20.4705L217.277 20.4165C217.685 20.4165 217.967 20.5065 218.123 20.6865C218.291 20.8665 218.375 21.1185 218.375 21.4425V43.4205C218.375 43.7445 218.291 43.9965 218.123 44.1765C217.967 44.3565 217.685 44.4465 217.277 44.4465H203.561ZM209.087 38.8485H211.751V26.0145H209.087V38.8485Z" fill="white"/>
<path d="M54.1674 20.7405L53.4603 21.4476V21.4476L54.1674 20.7405ZM57.7674 24.3405L58.4745 23.6334L58.4745 23.6334L57.7674 24.3405ZM57.7674 33.3405L57.0821 32.6123L57.071 32.6227L57.0603 32.6334L57.7674 33.3405ZM54.1674 36.9405L53.4603 36.2334L53.4496 36.2441L53.4392 36.2552L54.1674 36.9405ZM49.2174 37.2465V36.2465H48.2174V37.2465H49.2174ZM51.7014 30.5505L52.4208 31.2451L52.4267 31.239L52.4325 31.2329L51.7014 30.5505ZM51.7014 27.1485L50.9704 27.8309L50.9761 27.837L50.982 27.8431L51.7014 27.1485ZM48.4974 27.1485L47.7664 26.4662L47.7655 26.4671L48.4974 27.1485ZM48.4974 30.5505L47.7541 31.2195L47.7659 31.2325L47.778 31.2451L48.4974 30.5505ZM42.8994 43.4465C42.9036 43.4465 43.0903 43.4482 43.269 43.6269C43.4477 43.8056 43.4494 43.9924 43.4494 43.9965H41.4494C41.4494 44.3007 41.5261 44.7125 41.8548 45.0411C42.1835 45.3698 42.5953 45.4465 42.8994 45.4465V43.4465ZM43.4494 43.9965V20.9025H41.4494V43.9965H43.4494ZM43.4494 20.9025C43.4494 20.9067 43.4477 21.0935 43.269 21.2721C43.0903 21.4508 42.9036 21.4525 42.8994 21.4525V19.4525C42.5953 19.4525 42.1835 19.5292 41.8548 19.8579C41.5261 20.1866 41.4494 20.5984 41.4494 20.9025H43.4494ZM42.8994 21.4525H53.4474V19.4525H42.8994V21.4525ZM53.4474 21.4525C53.4638 21.4525 53.4727 21.4539 53.4755 21.4544C53.4782 21.4549 53.4765 21.4548 53.472 21.453C53.4675 21.4512 53.4631 21.4488 53.4597 21.4466C53.4565 21.4444 53.4567 21.4441 53.4603 21.4476L54.8745 20.0334C54.4827 19.6416 53.9828 19.4525 53.4474 19.4525V21.4525ZM53.4603 21.4476L57.0603 25.0476L58.4745 23.6334L54.8745 20.0334L53.4603 21.4476ZM57.0603 25.0476C57.0714 25.0587 57.0764 25.0656 57.0779 25.0678C57.0793 25.0698 57.0783 25.0686 57.0766 25.0647C57.0749 25.0607 57.0738 25.0568 57.0733 25.0542C57.0728 25.0518 57.0734 25.0534 57.0734 25.0605H59.0734C59.0734 24.5062 58.8566 24.0155 58.4745 23.6334L57.0603 25.0476ZM57.0734 25.0605V32.6205H59.0734V25.0605H57.0734ZM57.0734 32.6205C57.0734 32.6334 57.0723 32.6386 57.0725 32.6379C57.0726 32.6369 57.0737 32.6322 57.0766 32.6254C57.0795 32.6186 57.0828 32.613 57.0853 32.6095C57.0876 32.6062 57.0874 32.6073 57.0821 32.6123L58.4528 34.0687C58.8638 33.6819 59.0734 33.1755 59.0734 32.6205H57.0734ZM57.0603 32.6334L53.4603 36.2334L54.8745 37.6476L58.4745 34.0476L57.0603 32.6334ZM53.4392 36.2552C53.4342 36.2605 53.4331 36.2607 53.4364 36.2584C53.4399 36.2559 53.4454 36.2526 53.4523 36.2497C53.4591 36.2468 53.4638 36.2458 53.4647 36.2456C53.4655 36.2454 53.4602 36.2465 53.4474 36.2465V38.2465C54.0024 38.2465 54.5087 38.037 54.8956 37.6259L53.4392 36.2552ZM53.4474 36.2465H49.2174V38.2465H53.4474V36.2465ZM48.2174 37.2465V43.9965H50.2174V37.2465H48.2174ZM48.2174 43.9965C48.2174 43.9924 48.2191 43.8056 48.3978 43.6269C48.5765 43.4482 48.7633 43.4465 48.7674 43.4465V45.4465C49.0716 45.4465 49.4833 45.3698 49.812 45.0411C50.1407 44.7125 50.2174 44.3007 50.2174 43.9965H48.2174ZM48.7674 43.4465H42.8994V45.4465H48.7674V43.4465ZM50.0994 32.0725C50.9649 32.0725 51.8183 31.8691 52.4208 31.2451L50.982 29.8559C50.9125 29.9279 50.698 30.0725 50.0994 30.0725V32.0725ZM52.4325 31.2329C53.0183 30.6052 53.2054 29.7323 53.2054 28.8405H51.2054C51.2054 29.5087 51.0566 29.7759 50.9704 29.8682L52.4325 31.2329ZM53.2054 28.8405C53.2054 27.9528 53.02 27.0745 52.4208 26.4539L50.982 27.8431C51.0549 27.9186 51.2054 28.1682 51.2054 28.8405H53.2054ZM52.4325 26.4662C51.8315 25.8223 50.9734 25.6085 50.0994 25.6085V27.6085C50.6894 27.6085 50.8993 27.7547 50.9704 27.8309L52.4325 26.4662ZM50.0994 25.6085C49.2254 25.6085 48.3673 25.8223 47.7664 26.4662L49.2285 27.8309C49.2995 27.7547 49.5094 27.6085 50.0994 27.6085V25.6085ZM47.7655 26.4671C47.1877 27.0878 47.0114 27.9603 47.0114 28.8405H49.0114C49.0114 28.1608 49.1592 27.9053 49.2293 27.83L47.7655 26.4671ZM47.0114 28.8405C47.0114 29.725 47.1894 30.5921 47.7541 31.2195L49.2407 29.8816C49.1574 29.789 49.0114 29.516 49.0114 28.8405H47.0114ZM47.778 31.2451C48.3805 31.8691 49.234 32.0725 50.0994 32.0725V30.0725C49.5009 30.0725 49.2863 29.9279 49.2168 29.8559L47.778 31.2451ZM71.8296 20.6865L72.5337 19.9763L72.5099 19.9528L72.4846 19.9308L71.8296 20.6865ZM75.9696 24.7905L75.2656 25.5007L75.281 25.5159L75.297 25.5305L75.9696 24.7905ZM76.2216 25.0965L75.3025 25.4904L75.3025 25.4905L76.2216 25.0965ZM76.0236 30.9285L76.7279 31.6385L76.7308 31.6356L76.0236 30.9285ZM73.7916 33.1425L74.4435 33.9009L74.4706 33.8776L74.4959 33.8525L73.7916 33.1425ZM72.7656 34.0245L72.1138 33.2662L71.414 33.8678L71.9575 34.6135L72.7656 34.0245ZM74.3136 36.1485L75.2103 35.7058L75.1723 35.6289L75.1218 35.5595L74.3136 36.1485ZM76.4556 40.4865L77.3695 40.0804L77.3612 40.0619L77.3523 40.0438L76.4556 40.4865ZM76.5636 40.8105L75.5875 41.0275L75.5903 41.0403L75.5935 41.0531L76.5636 40.8105ZM70.3716 44.0865L69.4316 44.4275L69.4371 44.4428L69.4432 44.4579L70.3716 44.0865ZM67.7076 36.7425L68.6477 36.4015L68.4087 35.7425H67.7076V36.7425ZM66.8976 36.7425V35.7425H65.8976V36.7425H66.8976ZM69.8676 30.1905L69.1255 29.5202L69.1243 29.5216L69.8676 30.1905ZM69.8676 26.6985L69.1243 27.3675L69.1304 27.3742L69.1366 27.3808L69.8676 26.6985ZM66.6816 26.6985L65.9506 26.0162H65.9506L66.6816 26.6985ZM66.6816 30.1905L65.9395 30.8608L65.945 30.8669L65.9506 30.8729L66.6816 30.1905ZM60.7236 43.4465C60.7278 43.4465 60.9146 43.4482 61.0932 43.6269C61.2719 43.8056 61.2736 43.9924 61.2736 43.9965H59.2736C59.2736 44.3007 59.3504 44.7125 59.679 45.0411C60.0077 45.3698 60.4195 45.4465 60.7236 45.4465V43.4465ZM61.2736 43.9965V20.9025H59.2736V43.9965H61.2736ZM61.2736 20.9025C61.2736 20.9067 61.2719 21.0935 61.0932 21.2721C60.9146 21.4508 60.7278 21.4525 60.7236 21.4525V19.4525C60.4195 19.4525 60.0077 19.5292 59.679 19.8579C59.3504 20.1866 59.2736 20.5984 59.2736 20.9025H61.2736ZM60.7236 21.4525H71.1096V19.4525H60.7236V21.4525ZM71.1096 21.4525C71.1739 21.4525 71.2022 21.461 71.2056 21.4621C71.207 21.4625 71.2035 21.4615 71.1967 21.4577C71.1898 21.4539 71.1821 21.4486 71.1747 21.4422L72.4846 19.9308C72.0794 19.5797 71.5858 19.4525 71.1096 19.4525V21.4525ZM71.1256 21.3967L75.2656 25.5007L76.6737 24.0803L72.5337 19.9763L71.1256 21.3967ZM75.297 25.5305C75.3171 25.5487 75.3321 25.5634 75.3429 25.5745C75.3538 25.5857 75.3589 25.5918 75.3597 25.5927C75.3607 25.5939 75.3549 25.587 75.3453 25.5723C75.3361 25.5579 75.3196 25.5304 75.3025 25.4904L77.1408 24.7026C77.0168 24.4134 76.7983 24.1924 76.6423 24.0506L75.297 25.5305ZM75.3025 25.4905C75.2935 25.4695 75.2871 25.4517 75.2827 25.438C75.2783 25.4243 75.2754 25.4134 75.2736 25.406C75.2702 25.3919 75.2698 25.3864 75.2705 25.3924C75.2713 25.3979 75.2726 25.4104 75.2738 25.4311C75.2749 25.4516 75.2756 25.4779 75.2756 25.5105H77.2756C77.2756 25.2996 77.2622 24.9859 77.1408 24.7026L75.3025 25.4905ZM75.2756 25.5105V30.4425H77.2756V25.5105H75.2756ZM75.2756 30.4425C75.2756 30.3352 75.3057 30.2578 75.3249 30.2207C75.3419 30.188 75.3487 30.1893 75.3165 30.2214L76.7308 31.6356C76.99 31.3764 77.2756 30.9744 77.2756 30.4425H75.2756ZM75.3194 30.2186L73.0874 32.4326L74.4959 33.8525L76.7279 31.6385L75.3194 30.2186ZM73.1398 32.3842L72.1138 33.2662L73.4175 34.7828L74.4435 33.9009L73.1398 32.3842ZM71.9575 34.6135L73.5055 36.7375L75.1218 35.5595L73.5738 33.4355L71.9575 34.6135ZM73.417 36.5913L75.559 40.9293L77.3523 40.0438L75.2103 35.7058L73.417 36.5913ZM75.5418 40.8927C75.5646 40.944 75.5788 40.9887 75.5875 41.0275L77.5398 40.5936C77.5004 40.4164 77.4427 40.2451 77.3695 40.0804L75.5418 40.8927ZM75.5935 41.0531C75.5906 41.0413 75.5927 41.0457 75.5951 41.0718C75.5976 41.0971 75.5996 41.1352 75.5996 41.1885H77.5996C77.5996 40.9919 77.5856 40.7752 77.5338 40.568L75.5935 41.0531ZM75.5996 41.1885V43.9965H77.5996V41.1885H75.5996ZM75.5996 43.9965C75.5996 43.9924 75.6014 43.8056 75.78 43.6269C75.9587 43.4482 76.1455 43.4465 76.1496 43.4465V45.4465C76.4538 45.4465 76.8656 45.3698 77.1943 45.0411C77.5229 44.7125 77.5996 44.3007 77.5996 43.9965H75.5996ZM76.1496 43.4465H70.9116V45.4465H76.1496V43.4465ZM70.9116 43.4465C70.9332 43.4465 71.026 43.4529 71.1333 43.5245C71.2423 43.5971 71.2879 43.6846 71.3001 43.7151L69.4432 44.4579C69.5514 44.7284 69.735 44.996 70.0239 45.1886C70.3113 45.3802 70.6261 45.4465 70.9116 45.4465V43.4465ZM71.3117 43.7455L68.6477 36.4015L66.7676 37.0835L69.4316 44.4275L71.3117 43.7455ZM67.7076 35.7425H66.8976V37.7425H67.7076V35.7425ZM65.8976 36.7425V43.9965H67.8976V36.7425H65.8976ZM65.8976 43.9965C65.8976 43.9924 65.8994 43.8056 66.078 43.6269C66.2567 43.4482 66.4435 43.4465 66.4476 43.4465V45.4465C66.7518 45.4465 67.1636 45.3698 67.4922 45.0411C67.8209 44.7125 67.8976 44.3007 67.8976 43.9965H65.8976ZM66.4476 43.4465H60.7236V45.4465H66.4476V43.4465ZM68.2656 31.7305C69.1419 31.7305 70.0154 31.5212 70.6109 30.8595L69.1243 29.5216C69.0719 29.5799 68.8774 29.7305 68.2656 29.7305V31.7305ZM70.6097 30.8608C71.185 30.2239 71.3716 29.3473 71.3716 28.4445H69.3716C69.3716 29.1258 69.2223 29.4131 69.1255 29.5202L70.6097 30.8608ZM71.3716 28.4445C71.3716 27.5386 71.1887 26.6483 70.5987 26.0162L69.1366 27.3808C69.2186 27.4687 69.3716 27.7425 69.3716 28.4445H71.3716ZM70.6109 26.0296C70.0154 25.3679 69.1419 25.1585 68.2656 25.1585V27.1585C68.8774 27.1585 69.0719 27.3092 69.1243 27.3675L70.6109 26.0296ZM68.2656 25.1585C67.3977 25.1585 66.5488 25.3753 65.9506 26.0162L67.4127 27.3808C67.4865 27.3018 67.6936 27.1585 68.2656 27.1585V25.1585ZM65.9506 26.0162C65.3606 26.6483 65.1776 27.5386 65.1776 28.4445H67.1776C67.1776 27.7425 67.3307 27.4687 67.4127 27.3808L65.9506 26.0162ZM65.1776 28.4445C65.1776 29.3473 65.3643 30.2239 65.9395 30.8608L67.4237 29.5202C67.327 29.4131 67.1776 29.1258 67.1776 28.4445H65.1776ZM65.9506 30.8729C66.5488 31.5138 67.3977 31.7305 68.2656 31.7305V29.7305C67.6936 29.7305 67.4865 29.5873 67.4127 29.5082L65.9506 30.8729ZM82.6538 44.1405L81.9467 44.8476L82.6538 44.1405ZM79.0538 40.5405L78.3467 41.2476H78.3467L79.0538 40.5405ZM79.0538 24.3405L78.3467 23.6334L78.336 23.6441L78.3256 23.6552L79.0538 24.3405ZM82.6538 20.7405L81.9685 20.0123L81.9574 20.0227L81.9467 20.0334L82.6538 20.7405ZM91.3298 20.7405L90.6227 21.4476L91.3298 20.7405ZM94.9298 24.3405L95.6369 23.6334L95.6369 23.6334L94.9298 24.3405ZM94.9298 40.5405L94.2445 39.8123L94.2334 39.8227L94.2227 39.8334L94.9298 40.5405ZM91.3298 44.1405L90.6227 43.4334L90.612 43.4441L90.6016 43.4552L91.3298 44.1405ZM83.3738 43.4465C83.3667 43.4465 83.3651 43.4459 83.3675 43.4464C83.3701 43.4469 83.374 43.448 83.378 43.4497C83.3819 43.4514 83.3831 43.4524 83.3811 43.451C83.3789 43.4495 83.372 43.4445 83.3609 43.4334L81.9467 44.8476C82.3288 45.2297 82.8195 45.4465 83.3738 45.4465V43.4465ZM83.3609 43.4334L79.7609 39.8334L78.3467 41.2476L81.9467 44.8476L83.3609 43.4334ZM79.7609 39.8334C79.7574 39.8299 79.7577 39.8296 79.7599 39.8328C79.7621 39.8362 79.7645 39.8406 79.7663 39.8451C79.7681 39.8496 79.7682 39.8513 79.7677 39.8486C79.7672 39.8458 79.7658 39.8369 79.7658 39.8205H77.7658C77.7658 40.3559 77.9549 40.8558 78.3467 41.2476L79.7609 39.8334ZM79.7658 39.8205V25.0605H77.7658V39.8205H79.7658ZM79.7658 25.0605C79.7658 25.0497 79.7667 25.0443 79.767 25.0432C79.7672 25.0422 79.767 25.0431 79.7663 25.0449C79.7656 25.0467 79.7653 25.0467 79.7668 25.0445C79.7683 25.0421 79.7727 25.0358 79.782 25.0259L78.3256 23.6552C77.962 24.0416 77.7658 24.5256 77.7658 25.0605H79.7658ZM79.7609 25.0476L83.3609 21.4476L81.9467 20.0334L78.3467 23.6334L79.7609 25.0476ZM83.3392 21.4687C83.3491 21.4594 83.3554 21.455 83.3578 21.4535C83.36 21.452 83.36 21.4523 83.3582 21.453C83.3564 21.4537 83.3555 21.4539 83.3565 21.4537C83.3576 21.4534 83.363 21.4525 83.3738 21.4525V19.4525C82.8389 19.4525 82.3549 19.6487 81.9685 20.0123L83.3392 21.4687ZM83.3738 21.4525H90.6098V19.4525H83.3738V21.4525ZM90.6098 21.4525C90.6262 21.4525 90.6351 21.4539 90.6379 21.4544C90.6406 21.4549 90.6389 21.4548 90.6344 21.453C90.6299 21.4512 90.6255 21.4488 90.6221 21.4466C90.6189 21.4444 90.6192 21.4441 90.6227 21.4476L92.0369 20.0334C91.6451 19.6416 91.1452 19.4525 90.6098 19.4525V21.4525ZM90.6227 21.4476L94.2227 25.0476L95.6369 23.6334L92.0369 20.0334L90.6227 21.4476ZM94.2227 25.0476C94.2338 25.0587 94.2388 25.0656 94.2403 25.0678C94.2417 25.0698 94.2407 25.0686 94.239 25.0647C94.2373 25.0607 94.2362 25.0568 94.2357 25.0542C94.2352 25.0518 94.2358 25.0534 94.2358 25.0605H96.2358C96.2358 24.5062 96.019 24.0155 95.6369 23.6334L94.2227 25.0476ZM94.2358 25.0605V39.8205H96.2358V25.0605H94.2358ZM94.2358 39.8205C94.2358 39.8334 94.2347 39.8386 94.2349 39.8379C94.235 39.8369 94.2361 39.8322 94.239 39.8254C94.2419 39.8186 94.2452 39.813 94.2477 39.8095C94.25 39.8062 94.2498 39.8073 94.2445 39.8123L95.6152 41.2687C96.0263 40.8819 96.2358 40.3755 96.2358 39.8205H94.2358ZM94.2227 39.8334L90.6227 43.4334L92.0369 44.8476L95.6369 41.2476L94.2227 39.8334ZM90.6016 43.4552C90.5966 43.4605 90.5955 43.4607 90.5988 43.4584C90.6023 43.4559 90.6079 43.4526 90.6147 43.4497C90.6215 43.4468 90.6262 43.4458 90.6272 43.4456C90.6279 43.4454 90.6227 43.4465 90.6098 43.4465V45.4465C91.1648 45.4465 91.6711 45.237 92.058 44.8259L90.6016 43.4552ZM90.6098 43.4465H83.3738V45.4465H90.6098V43.4465ZM86.2898 39.3985H87.7118V37.3985H86.2898V39.3985ZM87.7118 39.3985C88.211 39.3985 88.7252 39.2113 89.0722 38.7373C89.3767 38.3214 89.4498 37.819 89.4498 37.3905H87.4498C87.4498 37.5008 87.4394 37.5649 87.4322 37.5944C87.4252 37.6232 87.4259 37.6003 87.4585 37.5558C87.4954 37.5054 87.5522 37.4565 87.6203 37.4254C87.6829 37.3969 87.7218 37.3985 87.7118 37.3985V39.3985ZM89.4498 37.3905V27.5085H87.4498V37.3905H89.4498ZM89.4498 27.5085C89.4498 27.0767 89.3776 26.5728 89.0771 26.1551C88.7329 25.6765 88.2179 25.4825 87.7118 25.4825V27.4825C87.7195 27.4825 87.6784 27.4837 87.6142 27.454C87.5447 27.4217 87.4887 27.3719 87.4535 27.323C87.4227 27.2802 87.4234 27.2601 87.4313 27.2928C87.4392 27.3261 87.4498 27.3942 87.4498 27.5085H89.4498ZM87.7118 25.4825H86.2898V27.4825H87.7118V25.4825ZM86.2898 25.4825C85.7871 25.4825 85.2688 25.6695 84.9178 26.1458C84.6088 26.5651 84.5338 27.0731 84.5338 27.5085H86.5338C86.5338 27.3957 86.5445 27.3294 86.5522 27.2982C86.5597 27.2678 86.5596 27.2892 86.5279 27.3322C86.4918 27.3811 86.4366 27.4282 86.3712 27.4578C86.3115 27.4848 86.2761 27.4825 86.2898 27.4825V25.4825ZM84.5338 27.5085V37.3905H86.5338V27.5085H84.5338ZM84.5338 37.3905C84.5338 37.8227 84.6098 38.3291 84.9228 38.7465C85.2765 39.218 85.7938 39.3985 86.2898 39.3985V37.3985C86.2739 37.3985 86.3071 37.3959 86.3652 37.4217C86.4291 37.4501 86.4851 37.4962 86.5228 37.5465C86.5563 37.5912 86.5578 37.6154 86.5512 37.589C86.5444 37.5615 86.5338 37.4993 86.5338 37.3905H84.5338ZM97.2738 42.6645L96.5667 41.9574L96.5498 41.9743L96.5338 41.9919L97.2738 42.6645ZM99.9378 40.0005L99.262 39.2634L99.246 39.2781L99.2307 39.2934L99.9378 40.0005ZM106.904 43.1865L107.865 43.4613L107.87 43.4452L107.874 43.4291L106.904 43.1865ZM106.724 43.4565L106.017 42.7494V42.7494L106.724 43.4565ZM102.998 47.1825L103.705 47.8896L102.998 47.1825ZM97.5438 46.4525C97.5479 46.4525 97.7347 46.4542 97.9134 46.6329C98.0921 46.8116 98.0938 46.9984 98.0938 47.0025H96.0938C96.0938 47.3067 96.1705 47.7185 96.4992 48.0471C96.8278 48.3758 97.2396 48.4525 97.5438 48.4525V46.4525ZM98.0938 47.0025V43.2045H96.0938V47.0025H98.0938ZM98.0938 43.2045C98.0938 43.177 98.0975 43.1846 98.0874 43.2148C98.0763 43.2483 98.0532 43.2938 98.0137 43.3372L96.5338 41.9919C96.2039 42.3548 96.0938 42.7993 96.0938 43.2045H98.0938ZM97.9809 43.3716L100.645 40.7076L99.2307 39.2934L96.5667 41.9574L97.9809 43.3716ZM100.613 40.7377C101.02 40.365 101.154 39.8707 101.154 39.4245H99.1538C99.1538 39.4571 99.1489 39.4451 99.1634 39.4064C99.1799 39.3626 99.2122 39.3091 99.262 39.2634L100.613 40.7377ZM101.154 39.4245V20.9025H99.1538V39.4245H101.154ZM101.154 20.9025C101.154 20.9067 101.152 21.0935 100.973 21.2721C100.795 21.4508 100.608 21.4525 100.604 21.4525V19.4525C100.3 19.4525 99.8878 19.5292 99.5592 19.8579C99.2305 20.1866 99.1538 20.5984 99.1538 20.9025H101.154ZM100.604 21.4525H106.49V19.4525H100.604V21.4525ZM106.49 21.4525C106.486 21.4525 106.299 21.4508 106.12 21.2721C105.941 21.0935 105.94 20.9067 105.94 20.9025H107.94C107.94 20.5984 107.863 20.1866 107.534 19.8579C107.206 19.5292 106.794 19.4525 106.49 19.4525V21.4525ZM105.94 20.9025V42.8805H107.94V20.9025H105.94ZM105.94 42.8805C105.94 42.9142 105.936 42.9342 105.934 42.944L107.874 43.4291C107.919 43.2469 107.94 43.0629 107.94 42.8805H105.94ZM105.942 42.9118C105.964 42.834 105.994 42.7838 106.009 42.7623C106.023 42.7408 106.029 42.7368 106.017 42.7494L107.431 44.1636C107.586 44.0081 107.776 43.7749 107.865 43.4613L105.942 42.9118ZM106.017 42.7494L102.291 46.4754L103.705 47.8896L107.431 44.1636L106.017 42.7494ZM102.291 46.4754C102.257 46.5086 102.253 46.5045 102.281 46.4906C102.313 46.4745 102.375 46.4525 102.458 46.4525V48.4525C102.997 48.4525 103.416 48.1786 103.705 47.8896L102.291 46.4754ZM102.458 46.4525H97.5438V48.4525H102.458V46.4525ZM116.577 26.4825V25.4825H115.577V26.4825H116.577ZM116.577 29.7225H115.577V30.7225H116.577V29.7225ZM116.577 35.1765V34.1765H115.577V35.1765H116.577ZM116.577 38.3985H115.577V39.3985H116.577V38.3985ZM110.259 43.4465C110.263 43.4465 110.45 43.4482 110.628 43.6269C110.807 43.8056 110.809 43.9924 110.809 43.9965H108.809C108.809 44.3007 108.886 44.7125 109.214 45.0411C109.543 45.3698 109.955 45.4465 110.259 45.4465V43.4465ZM110.809 43.9965V20.9025H108.809V43.9965H110.809ZM110.809 20.9025C110.809 20.9067 110.807 21.0935 110.628 21.2721C110.45 21.4508 110.263 21.4525 110.259 21.4525V19.4525C109.955 19.4525 109.543 19.5292 109.214 19.8579C108.886 20.1866 108.809 20.5984 108.809 20.9025H110.809ZM110.259 21.4525H122.787V19.4525H110.259V21.4525ZM122.787 21.4525C122.783 21.4525 122.596 21.4508 122.417 21.2721C122.239 21.0935 122.237 20.9067 122.237 20.9025H124.237C124.237 20.5984 124.16 20.1866 123.831 19.8579C123.503 19.5292 123.091 19.4525 122.787 19.4525V21.4525ZM122.237 20.9025V26.0325H124.237V20.9025H122.237ZM122.237 26.0325C122.237 26.0284 122.239 25.8416 122.417 25.6629C122.596 25.4842 122.783 25.4825 122.787 25.4825V27.4825C123.091 27.4825 123.503 27.4058 123.831 27.0771C124.16 26.7485 124.237 26.3367 124.237 26.0325H122.237ZM122.787 25.4825H116.577V27.4825H122.787V25.4825ZM115.577 26.4825V29.7225H117.577V26.4825H115.577ZM116.577 30.7225H122.499V28.7225H116.577V30.7225ZM122.499 30.7225C122.495 30.7225 122.308 30.7208 122.129 30.5421C121.951 30.3635 121.949 30.1767 121.949 30.1725H123.949C123.949 29.8684 123.872 29.4566 123.543 29.1279C123.215 28.7992 122.803 28.7225 122.499 28.7225V30.7225ZM121.949 30.1725V34.7265H123.949V30.1725H121.949ZM121.949 34.7265C121.949 34.7224 121.951 34.5356 122.129 34.3569C122.308 34.1782 122.495 34.1765 122.499 34.1765V36.1765C122.803 36.1765 123.215 36.0998 123.543 35.7711C123.872 35.4425 123.949 35.0307 123.949 34.7265H121.949ZM122.499 34.1765H116.577V36.1765H122.499V34.1765ZM115.577 35.1765V38.3985H117.577V35.1765H115.577ZM116.577 39.3985H122.787V37.3985H116.577V39.3985ZM122.787 39.3985C122.783 39.3985 122.596 39.3968 122.417 39.2181C122.239 39.0395 122.237 38.8527 122.237 38.8485H124.237C124.237 38.5444 124.16 38.1326 123.831 37.8039C123.503 37.4752 123.091 37.3985 122.787 37.3985V39.3985ZM122.237 38.8485V43.9965H124.237V38.8485H122.237ZM122.237 43.9965C122.237 43.9924 122.239 43.8056 122.417 43.6269C122.596 43.4482 122.783 43.4465 122.787 43.4465V45.4465C123.091 45.4465 123.503 45.3698 123.831 45.0411C124.16 44.7125 124.237 44.3007 124.237 43.9965H122.237ZM122.787 43.4465H110.259V45.4465H122.787V43.4465ZM129.163 26.4825H130.163V25.4825H129.163V26.4825ZM135.949 26.4825V25.4825H134.949V26.4825H135.949ZM129.613 43.4465C129.617 43.4465 129.804 43.4482 129.983 43.6269C130.162 43.8056 130.163 43.9924 130.163 43.9965H128.163C128.163 44.3007 128.24 44.7125 128.569 45.0411C128.897 45.3698 129.309 45.4465 129.613 45.4465V43.4465ZM130.163 43.9965V26.4825H128.163V43.9965H130.163ZM129.163 25.4825H126.571V27.4825H129.163V25.4825ZM126.571 25.4825C126.575 25.4825 126.762 25.4842 126.941 25.6629C127.12 25.8416 127.121 26.0284 127.121 26.0325H125.121C125.121 26.3367 125.198 26.7485 125.527 27.0771C125.855 27.4058 126.267 27.4825 126.571 27.4825V25.4825ZM127.121 26.0325V20.9025H125.121V26.0325H127.121ZM127.121 20.9025C127.121 20.9067 127.12 21.0935 126.941 21.2721C126.762 21.4508 126.575 21.4525 126.571 21.4525V19.4525C126.267 19.4525 125.855 19.5292 125.527 19.8579C125.198 20.1866 125.121 20.5984 125.121 20.9025H127.121ZM126.571 21.4525H138.559V19.4525H126.571V21.4525ZM138.559 21.4525C138.555 21.4525 138.368 21.4508 138.19 21.2721C138.011 21.0935 138.009 20.9067 138.009 20.9025H140.009C140.009 20.5984 139.933 20.1866 139.604 19.8579C139.275 19.5292 138.863 19.4525 138.559 19.4525V21.4525ZM138.009 20.9025V26.0325H140.009V20.9025H138.009ZM138.009 26.0325C138.009 26.0284 138.011 25.8416 138.19 25.6629C138.368 25.4842 138.555 25.4825 138.559 25.4825V27.4825C138.863 27.4825 139.275 27.4058 139.604 27.0771C139.933 26.7485 140.009 26.3367 140.009 26.0325H138.009ZM138.559 25.4825H135.949V27.4825H138.559V25.4825ZM134.949 26.4825V43.9965H136.949V26.4825H134.949ZM134.949 43.9965C134.949 43.9924 134.951 43.8056 135.13 43.6269C135.308 43.4482 135.495 43.4465 135.499 43.4465V45.4465C135.803 45.4465 136.215 45.3698 136.544 45.0411C136.873 44.7125 136.949 44.3007 136.949 43.9965H134.949ZM135.499 43.4465H129.613V45.4465H135.499V43.4465ZM145.759 44.1405L145.052 44.8476L145.759 44.1405ZM142.159 40.5405L141.452 41.2476L142.159 40.5405ZM142.159 24.3405L141.452 23.6334L141.441 23.6441L141.431 23.6552L142.159 24.3405ZM145.759 20.7405L145.074 20.0123L145.063 20.0227L145.052 20.0334L145.759 20.7405ZM154.435 20.7405L153.728 21.4476L154.435 20.7405ZM158.035 24.3405L158.742 23.6334V23.6334L158.035 24.3405ZM158.035 40.5405L157.35 39.8123L157.339 39.8227L157.328 39.8334L158.035 40.5405ZM154.435 44.1405L153.728 43.4334L153.717 43.4441L153.707 43.4552L154.435 44.1405ZM146.479 43.4465C146.472 43.4465 146.471 43.4459 146.473 43.4464C146.476 43.4469 146.479 43.448 146.483 43.4497C146.487 43.4514 146.489 43.4524 146.487 43.451C146.484 43.4495 146.477 43.4445 146.466 43.4334L145.052 44.8476C145.434 45.2297 145.925 45.4465 146.479 45.4465V43.4465ZM146.466 43.4334L142.866 39.8334L141.452 41.2476L145.052 44.8476L146.466 43.4334ZM142.866 39.8334C142.863 39.8299 142.863 39.8296 142.865 39.8328C142.868 39.8362 142.87 39.8406 142.872 39.8451C142.874 39.8496 142.874 39.8513 142.873 39.8486C142.873 39.8458 142.871 39.8369 142.871 39.8205H140.871C140.871 40.3559 141.06 40.8558 141.452 41.2476L142.866 39.8334ZM142.871 39.8205V25.0605H140.871V39.8205H142.871ZM142.871 25.0605C142.871 25.0497 142.872 25.0443 142.872 25.0432C142.873 25.0422 142.872 25.0431 142.872 25.0449C142.871 25.0467 142.871 25.0467 142.872 25.0445C142.874 25.0421 142.878 25.0358 142.887 25.0259L141.431 23.6552C141.067 24.0416 140.871 24.5256 140.871 25.0605H142.871ZM142.866 25.0476L146.466 21.4476L145.052 20.0334L141.452 23.6334L142.866 25.0476ZM146.445 21.4687C146.455 21.4594 146.461 21.455 146.463 21.4535C146.465 21.452 146.465 21.4523 146.464 21.453C146.462 21.4537 146.461 21.4539 146.462 21.4537C146.463 21.4534 146.469 21.4525 146.479 21.4525V19.4525C145.944 19.4525 145.46 19.6487 145.074 20.0123L146.445 21.4687ZM146.479 21.4525H153.715V19.4525H146.479V21.4525ZM153.715 21.4525C153.732 21.4525 153.741 21.4539 153.743 21.4544C153.746 21.4549 153.744 21.4548 153.74 21.453C153.735 21.4512 153.731 21.4488 153.728 21.4466C153.724 21.4444 153.725 21.4441 153.728 21.4476L155.142 20.0334C154.751 19.6416 154.251 19.4525 153.715 19.4525V21.4525ZM153.728 21.4476L157.328 25.0476L158.742 23.6334L155.142 20.0334L153.728 21.4476ZM157.328 25.0476C157.339 25.0587 157.344 25.0656 157.346 25.0678C157.347 25.0698 157.346 25.0686 157.344 25.0647C157.343 25.0607 157.342 25.0568 157.341 25.0542C157.341 25.0518 157.341 25.0534 157.341 25.0605H159.341C159.341 24.5062 159.124 24.0155 158.742 23.6334L157.328 25.0476ZM157.341 25.0605V39.8205H159.341V25.0605H157.341ZM157.341 39.8205C157.341 39.8334 157.34 39.8386 157.34 39.8379C157.341 39.8369 157.342 39.8322 157.344 39.8254C157.347 39.8186 157.351 39.813 157.353 39.8095C157.356 39.8062 157.355 39.8073 157.35 39.8123L158.721 41.2687C159.132 40.8819 159.341 40.3755 159.341 39.8205H157.341ZM157.328 39.8334L153.728 43.4334L155.142 44.8476L158.742 41.2476L157.328 39.8334ZM153.707 43.4552C153.702 43.4605 153.701 43.4607 153.704 43.4584C153.708 43.4559 153.713 43.4526 153.72 43.4497C153.727 43.4468 153.732 43.4458 153.733 43.4456C153.733 43.4454 153.728 43.4465 153.715 43.4465V45.4465C154.27 45.4465 154.777 45.237 155.163 44.8259L153.707 43.4552ZM153.715 43.4465H146.479V45.4465H153.715V43.4465ZM149.395 39.3985H150.817V37.3985H149.395V39.3985ZM150.817 39.3985C151.316 39.3985 151.831 39.2113 152.178 38.7373C152.482 38.3214 152.555 37.819 152.555 37.3905H150.555C150.555 37.5008 150.545 37.5649 150.538 37.5944C150.531 37.6232 150.531 37.6003 150.564 37.5558C150.601 37.5054 150.658 37.4565 150.726 37.4254C150.788 37.3969 150.827 37.3985 150.817 37.3985V39.3985ZM152.555 37.3905V27.5085H150.555V37.3905H152.555ZM152.555 27.5085C152.555 27.0767 152.483 26.5728 152.183 26.1551C151.838 25.6765 151.323 25.4825 150.817 25.4825V27.4825C150.825 27.4825 150.784 27.4837 150.72 27.454C150.65 27.4217 150.594 27.3719 150.559 27.323C150.528 27.2802 150.529 27.2601 150.537 27.2928C150.545 27.3261 150.555 27.3942 150.555 27.5085H152.555ZM150.817 25.4825H149.395V27.4825H150.817V25.4825ZM149.395 25.4825C148.893 25.4825 148.374 25.6695 148.023 26.1458C147.714 26.5651 147.639 27.0731 147.639 27.5085H149.639C149.639 27.3957 149.65 27.3294 149.658 27.2982C149.665 27.2678 149.665 27.2892 149.633 27.3322C149.597 27.3811 149.542 27.4282 149.477 27.4578C149.417 27.4848 149.382 27.4825 149.395 27.4825V25.4825ZM147.639 27.5085V37.3905H149.639V27.5085H147.639ZM147.639 37.3905C147.639 37.8227 147.715 38.3291 148.028 38.7465C148.382 39.218 148.899 39.3985 149.395 39.3985V37.3985C149.379 37.3985 149.413 37.3959 149.471 37.4217C149.535 37.4501 149.591 37.4962 149.628 37.5465C149.662 37.5912 149.663 37.6154 149.657 37.589C149.65 37.5615 149.639 37.4993 149.639 37.3905H147.639ZM176.28 44.4465L175.31 44.2017L174.996 45.4465H176.28V44.4465ZM181.68 23.0625V22.0625H180.901L180.71 22.8177L181.68 23.0625ZM186.342 23.0625L187.311 23.3074L187.626 22.0625H186.342V23.0625ZM180.942 44.4465V45.4465H181.721L181.911 44.6914L180.942 44.4465ZM166.002 39.7305L165.028 39.502L164.74 40.7305H166.002V39.7305ZM166.974 35.5905L166.971 34.5905L166.181 34.5926L166 35.362L166.974 35.5905ZM187.962 35.5365L188.95 35.6892L189.129 34.5335L187.959 34.5365L187.962 35.5365ZM187.314 39.7305V40.7305H188.171L188.302 39.8832L187.314 39.7305ZM168.81 44.4465L167.84 44.203L167.528 45.4465H168.81V44.4465ZM174.156 23.1525V22.1525H173.376L173.186 22.909L174.156 23.1525ZM178.818 23.1525L179.788 23.396L180.1 22.1525H178.818V23.1525ZM173.472 44.4465V45.4465H174.252L174.442 44.69L173.472 44.4465ZM167.496 31.9725L166.521 31.7492L166.241 32.9725H167.496V31.9725ZM168.432 27.8865L168.429 26.8865L167.634 26.8886L167.457 27.6632L168.432 27.8865ZM189.474 27.8325L190.46 27.9955L190.653 26.8295L189.471 26.8325L189.474 27.8325ZM188.79 31.9725V32.9725H189.638L189.776 32.1355L188.79 31.9725ZM177.249 44.6914L182.649 23.3074L180.71 22.8177L175.31 44.2017L177.249 44.6914ZM181.68 24.0625H186.342V22.0625H181.68V24.0625ZM185.372 22.8177L179.972 44.2017L181.911 44.6914L187.311 23.3074L185.372 22.8177ZM180.942 43.4465H176.28V45.4465H180.942V43.4465ZM166.975 39.9591L167.947 35.8191L166 35.362L165.028 39.502L166.975 39.9591ZM166.976 36.5905L187.964 36.5365L187.959 34.5365L166.971 34.5905L166.976 36.5905ZM186.973 35.3838L186.325 39.5778L188.302 39.8832L188.95 35.6892L186.973 35.3838ZM187.314 38.7305H166.002V40.7305H187.314V38.7305ZM169.78 44.69L175.126 23.396L173.186 22.909L167.84 44.203L169.78 44.69ZM174.156 24.1525H178.818V22.1525H174.156V24.1525ZM177.848 22.909L172.502 44.203L174.442 44.69L179.788 23.396L177.848 22.909ZM173.472 43.4465H168.81V45.4465H173.472V43.4465ZM168.47 32.1958L169.406 28.1098L167.457 27.6632L166.521 31.7492L168.47 32.1958ZM168.434 28.8865L189.476 28.8325L189.471 26.8325L168.429 26.8865L168.434 28.8865ZM188.487 27.6695L187.803 31.8095L189.776 32.1355L190.46 27.9955L188.487 27.6695ZM188.79 30.9725H167.496V32.9725H188.79V30.9725ZM192.829 26.4465H193.829V25.4278L192.811 25.4467L192.829 26.4465ZM190.885 26.4825V27.4825H190.895L190.904 27.4824L190.885 26.4825ZM193.279 43.4465C193.283 43.4465 193.47 43.4482 193.649 43.6269C193.828 43.8056 193.829 43.9924 193.829 43.9965H191.829C191.829 44.3007 191.906 44.7125 192.235 45.0411C192.563 45.3698 192.975 45.4465 193.279 45.4465V43.4465ZM193.829 43.9965V26.4465H191.829V43.9965H193.829ZM192.811 25.4467L190.867 25.4827L190.904 27.4824L192.848 27.4464L192.811 25.4467ZM190.885 25.4825C190.889 25.4825 191.076 25.4842 191.255 25.6629C191.434 25.8416 191.435 26.0284 191.435 26.0325H189.435C189.435 26.3367 189.512 26.7485 189.841 27.0771C190.169 27.4058 190.581 27.4825 190.885 27.4825V25.4825ZM191.435 26.0325V20.9025H189.435V26.0325H191.435ZM191.435 20.9025C191.435 20.9067 191.434 21.0935 191.255 21.2721C191.076 21.4508 190.889 21.4525 190.885 21.4525V19.4525C190.581 19.4525 190.169 19.5292 189.841 19.8579C189.512 20.1866 189.435 20.5984 189.435 20.9025H191.435ZM190.885 21.4525H199.147V19.4525H190.885V21.4525ZM199.147 21.4525C199.143 21.4525 198.956 21.4508 198.778 21.2721C198.599 21.0935 198.597 20.9067 198.597 20.9025H200.597C200.597 20.5984 200.521 20.1866 200.192 19.8579C199.863 19.5292 199.451 19.4525 199.147 19.4525V21.4525ZM198.597 20.9025V43.9965H200.597V20.9025H198.597ZM198.597 43.9965C198.597 43.9924 198.599 43.8056 198.778 43.6269C198.956 43.4482 199.143 43.4465 199.147 43.4465V45.4465C199.451 45.4465 199.863 45.3698 200.192 45.0411C200.521 44.7125 200.597 44.3007 200.597 43.9965H198.597ZM199.147 43.4465H193.279V45.4465H199.147V43.4465ZM202.715 44.1765L201.959 44.8315L201.971 44.8454L201.984 44.8589L202.715 44.1765ZM202.715 20.7405L201.984 20.0582L201.971 20.0717L201.959 20.0856L202.715 20.7405ZM203.561 20.4705V21.4705L203.565 21.4705L203.561 20.4705ZM217.277 20.4165V19.4165L217.273 19.4165L217.277 20.4165ZM218.123 20.6865L217.367 21.3415L217.379 21.3554L217.392 21.3689L218.123 20.6865ZM218.123 44.1765L217.392 43.4942L217.379 43.5077L217.367 43.5216L218.123 44.1765ZM209.087 38.8485H208.087V39.8485H209.087V38.8485ZM211.751 38.8485V39.8485H212.751V38.8485H211.751ZM211.751 26.0145H212.751V25.0145H211.751V26.0145ZM209.087 26.0145V25.0145H208.087V26.0145H209.087ZM203.561 43.4465C203.433 43.4465 203.372 43.4314 203.356 43.4264C203.345 43.4229 203.391 43.436 203.446 43.4942L201.984 44.8589C202.429 45.3362 203.051 45.4465 203.561 45.4465V43.4465ZM203.47 43.5216C203.492 43.547 203.497 43.5649 203.494 43.5569C203.491 43.5455 203.481 43.5042 203.481 43.4205H201.481C201.481 43.8981 201.596 44.4132 201.959 44.8315L203.47 43.5216ZM203.481 43.4205V21.4965H201.481V43.4205H203.481ZM203.481 21.4965C203.481 21.4128 203.491 21.3715 203.494 21.3602C203.497 21.3522 203.492 21.3701 203.47 21.3955L201.959 20.0856C201.596 20.5039 201.481 21.019 201.481 21.4965H203.481ZM203.446 21.4229C203.391 21.4811 203.345 21.4941 203.356 21.4907C203.372 21.4856 203.433 21.4705 203.561 21.4705V19.4705C203.051 19.4705 202.429 19.5809 201.984 20.0582L203.446 21.4229ZM203.565 21.4705L217.281 21.4165L217.273 19.4165L203.557 19.4705L203.565 21.4705ZM217.277 21.4165C217.343 21.4165 217.393 21.4202 217.43 21.425C217.467 21.4298 217.485 21.4352 217.49 21.4367C217.498 21.4393 217.435 21.4204 217.367 21.3415L218.878 20.0316C218.433 19.5178 217.777 19.4165 217.277 19.4165V21.4165ZM217.392 21.3689C217.382 21.3586 217.375 21.3481 217.369 21.3389C217.364 21.3299 217.362 21.325 217.363 21.3268C217.364 21.3312 217.375 21.3652 217.375 21.4425H219.375C219.375 20.9474 219.243 20.4218 218.854 20.0042L217.392 21.3689ZM217.375 21.4425V43.4205H219.375V21.4425H217.375ZM217.375 43.4205C217.375 43.4978 217.364 43.5318 217.363 43.5363C217.362 43.538 217.364 43.5332 217.369 43.5242C217.375 43.5149 217.382 43.5044 217.392 43.4942L218.854 44.8589C219.243 44.4413 219.375 43.9156 219.375 43.4205H217.375ZM217.367 43.5216C217.435 43.4427 217.498 43.4237 217.49 43.4264C217.485 43.4279 217.467 43.4332 217.43 43.4381C217.393 43.4429 217.343 43.4465 217.277 43.4465V45.4465C217.777 45.4465 218.433 45.3453 218.878 44.8315L217.367 43.5216ZM217.277 43.4465H203.561V45.4465H217.277V43.4465ZM209.087 39.8485H211.751V37.8485H209.087V39.8485ZM212.751 38.8485V26.0145H210.751V38.8485H212.751ZM211.751 25.0145H209.087V27.0145H211.751V25.0145ZM208.087 26.0145V38.8485H210.087V26.0145H208.087Z" fill="black" mask="url(#path-3-outside-1_75_209)"/>
</g>
<defs>
<filter id="filter0_b_75_209" x="38.4494" y="16.4165" width="183.925" height="35.036" filterUnits="userSpaceOnUse" color-interpolation-filters="sRGB">
<feFlood flood-opacity="0" result="BackgroundImageFix"/>
<feGaussianBlur in="BackgroundImageFix" stdDeviation="2"/>
<feComposite in2="SourceAlpha" operator="in" result="effect1_backgroundBlur_75_209"/>
<feBlend mode="normal" in="SourceGraphic" in2="effect1_backgroundBlur_75_209" result="shape"/>
</filter>
</defs>
</svg>
