<svg width="122" height="125" viewBox="0 0 122 125" fill="none" xmlns="http://www.w3.org/2000/svg">
<path fill-rule="evenodd" clip-rule="evenodd" d="M45.3825 18.0789C44.2295 18.0751 43.0809 18.2278 41.9656 18.5331V18.6921H42.131C42.9298 19.9502 43.8204 21.1422 44.7949 22.2574C45.4652 23.6472 46.0485 25.0325 46.7144 26.4223C46.7971 26.336 46.8798 26.2452 46.8798 26.2452C47.4982 25.733 47.9821 25.0658 48.2866 24.3058C48.591 23.5457 48.7061 22.7176 48.6209 21.8986C48.2564 21.3121 47.9222 20.7057 47.6198 20.0819C47.1192 19.2144 46.0354 18.7784 45.3694 18.0835" fill="#5D87A1"/>
<path fill-rule="evenodd" clip-rule="evenodd" d="M111.678 96.5033C106.188 96.1008 100.678 96.9309 95.521 98.9377C94.2717 99.46 92.2782 99.46 92.1041 101.109C92.7744 101.804 92.8527 102.925 93.4404 103.893C94.5804 105.907 96.0456 107.7 97.7713 109.193C99.5124 110.583 101.254 111.968 103.103 113.185C106.346 115.279 110.016 116.492 113.176 118.577C115.013 119.794 116.841 121.356 118.678 122.664C119.592 123.359 120.171 124.481 121.337 124.935V124.672C120.994 123.707 120.571 122.775 120.07 121.888C119.239 121.025 118.403 120.239 117.568 119.371C115.126 116.003 112.205 113.044 108.906 110.597C106.237 108.68 100.405 106.055 99.3296 102.875L99.1599 102.698C101.112 102.41 103.036 101.942 104.91 101.299C107.739 100.518 110.32 100.695 113.232 99.9369C114.569 99.5872 116.984 98.7197 116.984 98.7197V97.3571C115.496 95.8129 114.429 93.7464 112.862 92.2884C108.599 88.4054 104.056 84.8705 99.273 81.715C96.718 79.9936 93.423 78.8854 90.7025 77.4184C89.7188 76.9006 88.0908 76.6463 87.4945 75.7833C86.1415 73.7121 85.0089 71.4932 84.1168 69.1658C81.7315 64.4423 79.4202 59.2056 77.3657 54.2095C76.1496 50.8613 74.7471 47.5902 73.1653 44.4127C65.532 30.871 54.514 19.7496 41.2901 12.2383C37.9534 10.553 34.4059 9.36654 30.7521 8.71377C28.6889 8.62294 26.6344 8.45489 24.5755 8.37314C23.2465 7.46461 21.9823 6.4567 20.793 5.35734C16.0833 2.24617 3.98267 -4.43944 0.517884 4.41264C-1.70202 10.0037 3.81727 15.4993 5.71071 18.338C7.30727 20.3395 8.71399 22.4979 9.91112 24.7829C10.49 26.2453 10.6554 27.7941 11.2169 29.3247C12.4252 33.2539 13.8599 37.1033 15.5131 40.8519C16.3973 42.7047 17.4159 44.4842 18.56 46.175C19.226 47.1242 20.3751 47.5375 20.6232 49.1045C19.7104 51.1518 19.0718 53.3204 18.7254 55.5494C17.2866 60.2906 16.7571 65.2812 17.1671 70.236C17.5771 75.1908 18.9187 80.0128 21.1151 84.4265C22.4209 86.5748 25.5636 91.3028 29.764 89.4952C33.4682 87.951 32.6455 83.0503 33.7163 78.7582C33.9601 77.7182 33.799 77.0369 34.2909 76.3511V77.1868C34.2909 77.1868 36.3932 82.0057 37.4379 84.4537C40.2789 88.9456 43.8081 92.9198 47.8845 96.2171C49.4969 97.6861 50.7959 99.4918 51.6975 101.517V103.075H53.5561C53.5174 102.373 53.3308 101.688 53.0096 101.069C52.6883 100.451 52.2403 99.9137 51.6975 99.4963C50.1734 97.8594 48.7775 96.0976 47.5232 94.2278C44.1161 89.1646 41.1114 83.8192 38.5391 78.245C37.2333 75.5199 36.1321 72.5314 35.0874 69.8108C34.6086 68.7616 34.6086 67.1765 33.8034 66.6315C32.3164 68.4672 31.0262 70.4669 29.9555 72.5949C28.6558 76.8963 27.8993 81.3562 27.7052 85.8617C27.3874 85.9525 27.5441 85.8617 27.3874 86.0343C24.8236 85.3303 23.94 82.4371 22.9737 79.9845C20.4775 72.4203 20.2256 64.2463 22.2512 56.5304C22.8083 54.691 25.2241 48.8956 24.2578 47.1379C23.7746 45.4619 22.1685 44.5036 21.2892 43.1819C20.1667 41.4039 19.2008 39.5234 18.4033 37.5636C16.4925 32.6766 15.5262 27.2264 13.4455 22.303C12.2938 19.9352 10.9528 17.6729 9.43666 15.5402C7.75962 13.4098 6.2803 11.1179 5.01863 8.69561C4.61817 7.72819 4.05667 6.14763 4.69652 5.09392C4.73971 4.80122 4.8731 4.53117 5.07652 4.32466C5.27994 4.11814 5.5423 3.98639 5.82388 3.94937C6.85984 2.9865 9.83276 4.2128 10.8731 4.73965C13.6691 5.88819 16.3323 7.36145 18.8125 9.13162C19.9355 10.0127 22.582 12.2428 22.582 12.2428H23.3655C26.0293 12.8469 29.024 12.4108 31.5312 13.1966C35.7526 14.6649 39.7812 16.679 43.523 19.1918C54.5515 26.5276 63.5171 36.7854 69.5046 48.9183C70.5057 50.9121 70.9279 52.7425 71.842 54.8227C73.5831 59.092 75.7595 63.4522 77.5006 67.6035C79.0366 71.7106 81.0231 75.6183 83.4203 79.2488C84.6652 81.0655 89.6665 82.0284 91.9169 82.9822C93.8712 83.6876 95.789 84.4987 97.6625 85.4121C100.496 87.2288 103.321 89.3226 105.989 91.3165C107.317 92.3611 111.483 94.5321 111.735 96.2716" fill="#00758F"/>
</svg>
