<svg width="132" height="134" viewBox="0 0 132 134" fill="none" xmlns="http://www.w3.org/2000/svg">
<path d="M65.4583 0.0577912C31.9867 0.0577912 34.1034 14.8429 34.1034 14.8429V30.2059H65.9345V35.0219H21.4266C21.4266 35.0219 0 32.325 0 67.0243C0 101.724 18.9186 100.312 18.9186 100.312H29.8416V84.1259C29.8416 84.1259 29.2288 64.7993 48.2275 64.7993H80.1057C80.1057 64.7993 97.8881 65.0882 97.8881 47.2112V17.877C97.8881 17.877 100.585 0 65.6328 0L65.4583 0.0577912ZM47.8645 10.3496C48.9961 10.3204 50.1108 10.6347 51.0675 11.2527C52.0243 11.8708 52.7802 12.7648 53.2396 13.8217C53.6989 14.8786 53.8412 16.0509 53.6484 17.1904C53.4555 18.3299 52.9362 19.3854 52.1561 20.2234C51.3761 21.0613 50.3703 21.6442 49.2659 21.8982C48.1616 22.1522 47.0083 22.0659 45.952 21.6503C44.8956 21.2347 43.9836 20.5084 43.3313 19.5633C42.6791 18.6182 42.3158 17.4967 42.2874 16.3407V16.2444C42.2874 14.6937 42.8904 13.2066 43.9637 12.1102C45.037 11.0137 46.4927 10.3977 48.0106 10.3977L47.8645 10.3496Z" fill="url(#paint0_linear_66_374)"/>
<path d="M66.4002 133.99C99.8719 133.99 97.7552 119.157 97.7552 119.157V103.842H65.9288V99.0262H110.573C110.573 99.0262 132 101.473 132 66.9757C132 32.4787 113.081 33.6876 113.081 33.6876H102.017V49.6622C102.017 49.6622 102.63 68.9888 83.6311 68.9888H51.7387C51.7387 68.9888 33.9422 68.7143 33.9422 86.5913V116.123C33.9422 116.123 31.2456 134 66.1975 134H66.3861L66.4002 133.99ZM83.9941 123.65C82.8625 123.68 81.7478 123.365 80.791 122.747C79.8343 122.129 79.0784 121.235 78.619 120.178C78.1596 119.121 78.0174 117.949 78.2102 116.81C78.4031 115.67 78.9224 114.615 79.7024 113.777C80.4825 112.939 81.4883 112.356 82.5927 112.102C83.697 111.848 84.8503 111.934 85.9066 112.35C86.963 112.765 87.875 113.492 88.5272 114.437C89.1795 115.382 89.5428 116.503 89.5711 117.659V117.804C89.5711 119.354 88.9682 120.842 87.8949 121.938C86.8215 123.034 85.3658 123.65 83.8479 123.65H83.9941Z" fill="url(#paint1_linear_66_374)"/>
<defs>
<linearGradient id="paint0_linear_66_374" x1="13.0453" y1="13.1713" x2="77.0162" y2="75.6497" gradientUnits="userSpaceOnUse">
<stop stop-color="#387EB8"/>
<stop offset="1" stop-color="#366994"/>
</linearGradient>
<linearGradient id="paint1_linear_66_374" x1="50.1005" y1="54.7603" x2="122.982" y2="117.044" gradientUnits="userSpaceOnUse">
<stop stop-color="#FFE052"/>
<stop offset="1" stop-color="#FFC331"/>
</linearGradient>
</defs>
</svg>
