<svg width="142" height="132" viewBox="0 0 142 132" fill="none" xmlns="http://www.w3.org/2000/svg">
<path d="M70.82 78.8189C77.8045 78.8189 83.4665 72.9109 83.4665 65.623C83.4665 58.3351 77.8045 52.4271 70.82 52.4271C63.8356 52.4271 58.1736 58.3351 58.1736 65.623C58.1736 72.9109 63.8356 78.8189 70.82 78.8189Z" fill="#007ACC"/>
<path d="M70.8201 95.8783C55.6197 96.262 40.4575 94.124 25.8999 89.5443C19.1752 87.3199 12.9031 83.8159 7.4007 79.2093C5.30103 77.6356 3.5525 75.6065 2.27505 73.2614C0.997615 70.9162 0.221513 68.3104 0 65.6228C0 56.8977 9.18637 48.3468 24.5746 42.7518C39.5213 37.7941 55.1381 35.3913 70.8201 35.6365C86.2928 35.411 101.7 37.7703 116.459 42.6251C122.935 44.7795 128.994 48.1141 134.356 52.4745C136.42 53.9748 138.142 55.9303 139.401 58.2025C140.66 60.4747 141.424 63.008 141.64 65.6228C141.64 74.691 131.371 83.8806 114.83 89.5918C100.554 94.0223 85.7117 96.1424 70.8201 95.8783ZM70.8201 41.9495C55.8169 41.7402 40.8775 44.0244 26.5626 48.7163C12.3986 53.8732 6.05006 60.9251 6.05006 65.607C6.05006 70.5053 12.8741 78.2064 27.8576 83.5534C41.7842 87.9125 56.2848 89.9417 70.8201 89.5654C85.0671 89.8313 99.2691 87.8198 112.933 83.6009C128.488 78.2222 135.57 70.5106 135.57 65.6228C135.315 63.9455 134.729 62.3417 133.849 60.9126C132.97 59.4835 131.816 58.2602 130.461 57.32C125.664 53.4517 120.251 50.4964 114.471 48.5896C100.352 43.9645 85.6163 41.7229 70.8201 41.9495Z" fill="#007ACC"/>
<path d="M42.0873 131.439C39.7275 131.495 37.3955 130.898 35.3291 129.707C28.0852 125.347 25.5761 112.774 28.6163 96.0684C31.9684 80.0808 37.7764 64.7641 45.8155 50.7115C53.3564 36.6136 63.0105 23.8654 74.4116 12.9503C79.4356 8.1718 85.2312 4.35998 91.5298 1.69155C93.808 0.577495 96.2932 0 98.8091 0C101.325 0 103.81 0.577495 106.088 1.69155C113.621 6.22037 116.115 20.0919 112.599 37.8957C109.143 53.0159 103.486 67.4937 95.8246 80.8245C88.549 94.756 79.1989 107.393 68.1238 118.264C62.9174 123.23 56.8752 127.147 50.3024 129.818C47.6711 130.837 44.8936 131.385 42.0873 131.439ZM51.0562 53.8469C43.3879 67.3031 37.8212 81.9473 34.5652 97.2296C31.7678 112.616 34.4539 121.869 38.3591 124.223C42.406 126.667 52.2297 124.35 64.1579 113.476C74.7304 103.062 83.6548 90.9653 90.5991 77.6364C97.9387 64.8919 103.365 51.0501 106.69 36.592C109.999 19.8332 107.141 9.57212 103.084 7.13352C101.563 6.5256 99.9382 6.25346 98.3117 6.33432C96.6852 6.41518 95.0925 6.84728 93.6342 7.60329C88.0277 10.0173 82.8733 13.4445 78.4079 17.7272C67.5151 28.1824 58.2934 40.3868 51.0916 53.8786L51.0562 53.8469Z" fill="#007ACC"/>
<path d="M99.5378 131.507C92.6834 131.507 83.9776 127.179 74.9127 119.045C63.3118 108.03 53.4945 95.1308 45.841 80.8455C37.9028 66.9865 32.1407 51.8914 28.7734 36.1327C27.313 29.1995 27.0424 22.051 27.9741 15.0193C28.1895 12.4108 28.9508 9.8833 30.2041 7.61514C31.4575 5.34699 33.1725 3.39336 35.2281 1.89203C42.7502 -2.65263 55.513 2.01871 68.5388 14.085C79.3672 24.7588 88.5627 37.1023 95.8046 50.6851C103.738 64.2206 109.56 78.9851 113.054 94.4267C114.578 101.614 114.813 109.034 113.747 116.311C113.494 118.994 112.687 121.589 111.383 123.917C110.078 126.245 108.307 128.25 106.19 129.797C104.157 130.973 101.861 131.563 99.5378 131.507ZM51.0766 77.668C58.4188 91.3201 67.7967 103.666 78.8583 114.242C90.2351 124.455 99.2596 126.651 103.14 124.27C107.186 121.816 110.171 111.798 107.095 95.5879C103.726 80.8452 98.1411 66.7519 90.5487 53.831C83.6378 40.831 74.8608 29.0114 64.5223 18.7827C52.2604 7.42373 42.3152 4.88485 38.2633 7.334C37.0004 8.40488 35.964 9.73736 35.2196 11.2473C34.4751 12.7572 34.0388 14.4118 33.9382 16.1066C33.1339 22.3777 33.3959 28.7477 34.7122 34.9239C37.9512 49.9943 43.4774 64.4278 51.0817 77.6785L51.0766 77.668Z" fill="#007ACC"/>
</svg>
