<svg width="125" height="114" viewBox="0 0 125 114" fill="none" xmlns="http://www.w3.org/2000/svg">
<path fill-rule="evenodd" clip-rule="evenodd" d="M62.5 0C74.8613 0 86.945 3.34299 97.2231 9.60623C107.501 15.8695 115.512 24.7717 120.242 35.187C124.973 45.6024 126.211 57.0632 123.799 68.1201C121.387 79.177 115.435 89.3335 106.694 97.3051C97.9534 105.277 86.8169 110.705 74.6931 112.905C62.5693 115.104 50.0027 113.975 38.5823 109.661C27.1619 105.347 17.4007 98.0411 10.5331 88.6675C3.66556 79.2939 0 68.2735 0 57C0 41.8827 6.5848 27.3845 18.3058 16.6949C30.0268 6.00534 45.924 0 62.5 0Z" fill="#CC6699"/>
<path d="M101.705 24.3959C98.8747 14.2743 80.4685 10.9602 63.0489 16.5869C52.1395 19.9301 42.0603 25.2028 33.3882 32.1031C23.7944 40.2867 22.2632 47.4117 22.8926 50.3879C25.1248 60.8922 40.8971 67.7566 47.3837 72.8499V72.8784C45.473 73.7375 31.473 80.207 28.1873 86.8027C24.7319 93.773 28.7364 98.7727 31.3926 99.4445C35.3807 100.32 39.5692 100.035 43.3707 98.6296C47.1721 97.224 50.3956 94.7683 52.5891 91.607C54.4018 89.0458 55.5359 86.1348 55.9017 83.1046C56.2674 80.0745 55.8547 77.0083 54.6962 74.1487C57.8206 73.4247 61.0684 73.2547 64.2632 73.648C75.2274 74.8165 77.3792 81.0579 76.9685 83.6718C76.7753 84.6022 76.3647 85.4838 75.7647 86.2566C75.1646 87.0294 74.389 87.6753 73.4908 88.1504C72.723 88.586 72.4864 88.7326 72.5533 89.0583C72.6471 89.5265 72.9998 89.5102 73.656 89.4084C75.3037 88.9352 76.7555 88.0178 77.8202 86.7772C78.8848 85.5366 79.5124 84.0309 79.6203 82.4585C79.8837 76.3514 73.4507 69.487 62.0578 69.662C58.7489 69.5758 55.447 69.9885 52.2855 70.8834C52.1292 70.7206 51.9685 70.5577 51.8033 70.3949C44.7587 63.5427 31.7409 58.6936 32.29 49.48C32.4909 46.1292 33.7676 37.3105 57.29 26.6107C76.5757 17.845 92.0131 20.2593 94.6828 25.6051C98.4953 33.2431 86.4328 47.432 66.406 49.48C64.1925 49.8898 61.9062 49.8398 59.7168 49.3337C57.5274 48.8277 55.491 47.8785 53.7587 46.5567C52.7051 45.4981 52.5489 45.4533 52.156 45.6487C51.5176 45.9704 51.9239 46.9068 52.156 47.4605C52.9229 48.7209 53.958 49.829 55.2006 50.7197C56.4433 51.6104 57.8685 52.2658 59.3926 52.6475C67.2666 54.2079 75.4795 53.4671 82.8658 50.5304C95.0131 46.2595 104.486 34.3505 101.705 24.3959ZM50.0801 75.9849C50.9668 78.7726 50.9217 81.7382 49.9507 84.5024C49.8465 84.7901 49.7319 85.0751 49.6069 85.3574C49.4819 85.6397 49.3465 85.9111 49.2007 86.1717C48.4493 87.5736 47.4761 88.8672 46.3123 90.011C42.6828 93.6224 37.6069 94.9904 35.4328 93.8382C33.0846 92.5964 34.2587 87.503 38.4685 83.4438C41.7033 80.5266 45.4327 78.1042 49.5132 76.2699L50.0801 75.9849Z" fill="black"/>
</svg>
